<svg version="1.1" id="Layer_1" xmlns="http://www.w3.org/2000/svg" xmlns:xlink="http://www.w3.org/1999/xlink" x="0px" y="0px"
	 width="100%" viewBox="0 0 1024 1024" enable-background="new 0 0 1024 1024" xml:space="preserve">
<path fill="#000000" opacity="1.000000" stroke="none" 
	d="
M246.639709,373.681793 
	C286.415039,318.846222 332.814270,271.195923 388.867706,233.423843 
	C412.320587,217.619934 437.084045,204.355118 464.903320,197.720856 
	C465.854034,197.494110 467.010010,197.260727 467.620270,196.609024 
	C473.114868,190.741257 480.152161,190.568436 487.486633,190.651459 
	C503.817444,190.836334 520.151855,190.696854 536.484802,190.701385 
	C538.149963,190.701843 540.055359,190.263489 541.443359,190.905823 
	C556.255066,197.760239 572.955994,196.670212 588.112488,202.525589 
	C617.001587,213.686325 643.212341,229.344666 667.644958,248.055344 
	C729.106201,295.122711 779.678101,351.866882 818.121216,419.188354 
	C825.637695,432.351349 832.367310,445.965027 837.477112,460.278473 
	C838.973328,464.469788 841.057800,466.618683 845.796509,465.996582 
	C849.071960,465.566589 852.454956,466.026855 855.784119,465.914978 
	C859.249023,465.798553 860.335571,467.360504 860.361145,470.749359 
	C860.691895,514.616455 850.980774,556.311401 832.878418,596.075500 
	C815.115906,635.093079 790.075745,668.977295 758.607239,698.017883 
	C718.371948,735.148865 671.822388,761.192871 619.257568,776.575867 
	C595.204468,783.615051 570.676758,788.073975 545.759583,790.086304 
	C514.631775,792.600159 483.665405,790.934021 452.845245,785.538696 
	C403.225037,776.852173 357.358734,758.859314 315.711090,730.565186 
	C255.093170,689.383240 211.589264,634.737488 187.954407,565.026794 
	C178.446274,536.982666 173.095642,508.044220 172.692123,478.316620 
	C172.685333,477.816681 172.734421,477.308929 172.664841,476.817932 
	C170.846313,463.985840 172.690628,465.931152 183.069702,465.901306 
	C195.868698,465.864471 195.820297,465.959808 200.748230,454.136993 
	C212.669724,425.535583 228.502380,399.155914 246.639709,373.681793 
M421.138031,654.618774 
	C417.283936,658.992737 413.545593,663.475525 409.555298,667.721436 
	C394.054504,684.215332 377.439117,699.411438 356.096100,707.997803 
	C330.134277,718.442383 306.684998,711.389282 294.681488,683.922119 
	C290.178009,673.616943 288.402466,662.599426 285.769287,651.828125 
	C283.250580,641.525085 286.197906,630.999329 285.852661,620.532349 
	C285.413483,607.218384 287.276062,593.978333 289.360687,580.823059 
	C290.914215,571.019531 292.593353,561.235901 294.243988,551.277893 
	C291.618622,551.400879 289.798035,552.636047 287.852783,553.489136 
	C269.579895,561.503296 250.893311,568.029480 230.570282,567.162476 
	C215.150482,566.504700 201.922241,561.063293 193.399673,547.328552 
	C188.081024,538.757080 186.043152,529.156006 185.784302,519.198914 
	C185.390396,504.046722 188.737869,489.465424 192.955399,475.040527 
	C193.444153,473.368835 194.686874,471.743774 193.184067,469.284241 
	C189.360260,469.284241 185.208664,469.558319 181.109314,469.212677 
	C176.325714,468.809387 175.186478,470.881073 175.224487,475.311249 
	C175.416824,497.741302 178.428406,519.824463 183.961548,541.481812 
	C198.230286,597.331482 226.115631,645.494934 266.817963,686.285706 
	C300.982269,720.524170 340.799591,746.039368 385.805542,763.563232 
	C412.445068,773.935791 439.981873,780.909912 468.320831,784.493164 
	C478.100128,785.729614 487.936493,787.257141 498.043091,786.674255 
	C497.404083,785.282959 496.271820,785.341125 495.399048,785.001465 
	C483.849792,780.508423 476.492035,772.323303 473.470215,760.270569 
	C471.810791,753.651794 470.231903,747.009155 468.381195,740.443604 
	C467.429596,737.067871 468.486694,735.767151 471.850098,735.769470 
	C497.679749,735.787048 523.509399,735.783020 549.339050,735.759644 
	C552.493408,735.756836 553.436890,737.014771 552.596130,740.137207 
	C550.649841,747.365540 549.047974,754.687012 547.084900,761.910461 
	C545.530029,767.631897 542.503357,772.528442 538.327759,776.823059 
	C533.567200,781.719299 527.441650,784.152161 520.689392,786.927734 
	C525.370361,788.449829 529.232788,786.954346 533.110168,786.860229 
	C559.024597,786.231140 584.403564,782.063354 609.403320,775.379639 
	C669.782959,759.237183 722.413086,729.580444 766.493835,685.099121 
	C812.108765,639.069702 840.970764,584.236694 852.819885,520.475403 
	C855.377625,506.711823 856.341125,492.780029 857.498901,478.872467 
	C858.300049,469.248749 858.091858,469.231384 848.392212,469.280487 
	C841.305603,469.316376 841.304504,469.316681 843.278870,476.296173 
	C847.869995,492.526276 851.323669,508.812531 849.465820,525.938660 
	C846.744995,551.020142 829.367432,567.037964 804.054321,567.272217 
	C788.123413,567.419617 773.086548,563.486145 758.406860,557.781738 
	C752.905579,555.644043 747.483276,553.303284 741.605774,550.882446 
	C741.751343,552.110962 741.788757,552.749329 741.906311,553.372498 
	C747.902466,585.153809 752.584167,617.038147 749.286194,649.529358 
	C747.900146,663.184937 745.246399,676.513977 738.722900,688.791748 
	C728.632019,707.783813 711.718811,715.826477 690.724487,711.341980 
	C672.346558,707.416382 657.647766,696.766724 643.910828,684.698669 
	C621.459351,664.974976 603.272034,641.585327 586.773132,616.833069 
	C584.584106,613.549133 582.259827,612.216553 578.275024,612.230042 
	C537.947754,612.366638 497.619690,612.351135 457.292236,612.239258 
	C453.724915,612.229370 451.499298,613.333130 449.535461,616.339355 
	C440.964630,629.459412 431.623047,642.026917 421.138031,654.618774 
M582.971619,212.577454 
	C574.781921,209.961105 566.663696,207.011124 558.093445,206.898010 
	C557.310791,207.996704 557.632874,208.786270 557.916199,209.558197 
	C562.102966,220.963974 566.299255,232.366241 570.485535,243.772186 
	C571.044189,245.294556 572.334229,246.060577 573.571777,246.912384 
	C580.307495,251.548553 586.687683,256.648712 592.707703,262.167328 
	C594.710083,264.002930 596.725403,264.774689 599.401855,264.752258 
	C607.564453,264.683777 615.742920,264.532410 623.889709,264.932434 
	C649.977417,266.213348 665.698975,290.143860 658.441467,311.225311 
	C656.229736,317.649811 655.160461,324.460388 653.367981,331.039612 
	C652.527588,334.124146 652.816956,336.639526 654.589172,339.460052 
	C678.506775,377.525818 698.042847,417.770325 713.866150,459.823303 
	C715.138123,463.203735 716.478882,466.170715 720.356140,467.443665 
	C719.068115,469.950562 718.334473,471.996246 719.337036,474.712250 
	C726.141113,493.143402 731.877380,511.920380 736.530334,531.010681 
	C737.440796,534.746155 739.400940,537.020935 742.815918,538.702759 
	C760.536621,547.430054 778.673767,554.897278 798.623596,556.387939 
	C808.105835,557.096436 817.277222,555.330261 825.120300,549.480042 
	C835.624512,541.644836 838.209839,530.094910 838.554993,518.029602 
	C838.983582,503.049774 835.088135,488.710663 830.624023,474.529816 
	C829.580933,471.216553 828.191772,468.740631 824.285034,468.677948 
	C823.655090,468.667847 823.065369,468.140747 823.290894,467.341248 
	C824.112244,465.812439 826.409607,467.174255 827.138733,464.991394 
	C821.295349,449.263153 813.682617,434.072327 805.102112,419.425018 
	C768.446960,356.852417 720.974121,303.714508 663.847290,259.201691 
	C639.313721,240.085297 613.132263,223.615692 582.971619,212.577454 
M268.242157,363.705017 
	C244.277100,394.987854 223.252060,427.977234 208.603302,465.430267 
	C227.276764,467.038269 245.457047,464.264465 263.266815,467.801056 
	C261.229645,469.424683 259.026703,469.096130 256.922272,469.112946 
	C242.261688,469.230316 227.600372,469.278687 212.939240,469.287018 
	C209.751587,469.288818 206.891861,469.616882 205.769470,473.253876 
	C200.460953,490.455597 195.470993,507.647186 198.155716,526.062195 
	C201.707962,550.427734 218.805588,557.375793 236.803848,556.351746 
	C257.075592,555.198425 275.576660,547.471375 293.500488,538.325378 
	C296.753418,536.665527 298.591888,534.512085 299.428406,530.961487 
	C303.745789,512.636841 309.544037,494.749146 315.665771,476.961060 
	C318.322113,469.242462 318.281433,469.293579 309.807465,469.197205 
	C305.417542,469.147278 300.964844,469.642914 295.660919,468.270569 
	C298.773468,466.366669 301.358124,466.157532 303.926086,466.082794 
	C307.421967,465.980988 310.929993,465.896301 314.419220,466.072906 
	C318.067017,466.257538 320.169006,464.934906 321.501038,461.342743 
	C335.022583,424.879120 351.559418,389.827362 371.165405,356.232849 
	C372.384125,354.144623 372.842285,352.143829 372.181183,349.610443 
	C368.695435,336.252625 365.476135,322.825531 362.069916,309.446533 
	C360.425751,302.988708 360.380249,296.647919 362.488556,290.272644 
	C367.403412,275.410522 380.633209,265.458954 397.320709,264.906189 
	C410.136047,264.481689 422.984589,264.436127 435.798279,264.847626 
	C442.306458,265.056610 444.842407,259.996094 448.896332,256.893188 
	C450.020569,256.032654 449.223663,254.687897 448.699707,253.674210 
	C445.896698,248.251266 447.049133,243.099091 449.421753,237.865341 
	C452.721466,230.586365 455.813354,223.212204 458.920654,215.847763 
	C459.578857,214.287872 460.798309,212.730728 459.814758,210.506149 
	C447.550751,213.908997 436.156342,218.933960 425.115601,224.766632 
	C395.334473,240.499603 368.589539,260.507843 343.476593,282.832550 
	C316.008606,307.250854 291.151337,334.080139 268.242157,363.705017 
M641.682007,666.818237 
	C646.212646,670.989685 650.593445,675.339600 655.305786,679.294556 
	C664.523499,687.030640 674.362488,693.856262 685.642822,698.331421 
	C704.898010,705.970642 719.554016,700.507507 728.907043,682.060852 
	C735.988464,668.094604 737.962219,652.885071 738.595215,637.563782 
	C739.860596,606.933716 735.084595,576.905945 728.583130,547.096802 
	C727.966980,544.271606 726.418579,542.554688 723.901062,541.109558 
	C707.703003,531.810913 692.358337,521.242798 677.615662,509.769958 
	C662.747864,498.199738 648.607300,485.811310 635.006531,472.789093 
	C628.021790,466.101501 619.602051,468.306549 617.331970,477.406769 
	C613.428894,493.053650 609.407898,508.673920 605.784912,524.385742 
	C604.879089,528.314026 603.180359,529.429688 599.364990,529.380005 
	C585.377014,529.197815 571.385132,529.282104 557.395081,529.344666 
	C555.673828,529.352356 553.755310,528.687683 552.062744,530.243225 
	C553.884705,535.815979 556.851562,540.834412 559.253845,546.105957 
	C560.462097,548.757263 562.228577,549.694275 565.107666,549.653503 
	C574.932190,549.514343 584.759827,549.582458 594.586243,549.603943 
	C596.015381,549.607117 597.610718,549.059204 598.956299,550.792847 
	C598.095459,557.512512 595.660034,564.092957 594.310181,570.905151 
	C593.670288,574.134338 592.066895,575.291382 588.842651,575.298645 
	C584.608459,575.308228 580.299561,574.674805 575.334595,575.953186 
	C579.681641,581.832092 580.584717,589.348206 587.475403,592.830811 
	C588.339111,593.267395 588.324341,594.216553 588.224182,595.039124 
	C587.937866,597.390869 589.136108,599.218933 590.298279,601.042725 
	C605.190613,624.413635 621.667480,646.551086 641.682007,666.818237 
M445.500061,529.317261 
	C437.503967,529.316711 429.501282,529.123230 421.514648,529.397766 
	C417.574036,529.533264 415.946838,528.053772 415.091797,524.306335 
	C412.465454,512.795471 409.538269,501.352661 406.673706,489.897003 
	C405.243042,484.175720 403.694397,478.483948 402.164856,472.648193 
	C399.491577,473.765961 398.081909,475.440826 396.512970,476.904755 
	C371.730072,500.028778 345.533081,521.350342 316.164886,538.433289 
	C310.306244,541.841248 306.765015,545.742676 306.166138,552.551208 
	C305.819336,556.493896 304.523438,560.344543 303.806671,564.264465 
	C298.162659,595.130188 294.445923,626.130676 299.419373,657.452515 
	C301.549164,670.865601 305.266479,683.879639 315.459229,693.815796 
	C322.237885,700.423767 330.403473,702.731812 339.775513,701.099487 
	C354.772186,698.487610 366.861786,690.251099 378.318817,681.015259 
	C400.574585,663.074036 418.061493,640.844360 434.496857,617.694031 
	C436.696686,614.595459 437.541718,611.905762 435.960144,608.121399 
	C434.441711,604.488098 434.130280,600.368835 433.021179,596.540588 
	C431.992004,592.988281 433.579193,592.027893 436.724304,592.052795 
	C440.388458,592.081909 444.053589,592.014282 447.718109,591.972534 
	C449.221252,591.955444 450.867279,592.051025 451.796478,590.606262 
	C454.816437,585.910706 458.100830,581.348816 460.132568,576.077942 
	C458.128113,574.786682 456.253601,575.280090 454.484100,575.266785 
	C446.988342,575.210449 439.491821,575.247925 431.995575,575.261597 
	C429.923767,575.265320 427.812164,575.194580 427.185394,572.701904 
	C425.332855,565.334106 423.578064,557.941650 421.831696,550.751099 
	C424.210571,549.221985 426.266846,549.611572 428.221283,549.642883 
	C442.037292,549.864563 455.849335,548.586304 469.669067,549.561462 
	C471.621674,549.699280 474.039124,550.060059 475.149445,548.017090 
	C478.348389,542.131042 481.275146,536.097046 484.716614,529.317810 
	C471.114166,529.317810 458.807129,529.317810 445.500061,529.317261 
M475.016846,366.537170 
	C476.818695,363.734924 478.354889,360.710052 480.477997,358.177094 
	C484.823883,352.992249 485.248291,347.138245 484.510895,340.804718 
	C481.991821,319.167603 482.457031,297.618195 487.219727,276.297974 
	C488.098602,272.363617 487.013519,271.159454 483.189270,271.207825 
	C473.194061,271.334167 463.195221,271.356018 453.200500,271.221924 
	C450.378174,271.184082 448.570038,272.466309 446.722137,274.288788 
	C421.261566,299.399689 401.008423,328.435181 382.723694,358.967316 
	C381.426575,361.133270 381.324371,363.166962 381.932922,365.612366 
	C387.238190,386.930664 392.386749,408.287872 397.644714,429.618042 
	C399.561066,437.392151 401.646973,445.124481 403.872742,453.714142 
	C430.662750,426.516235 454.094391,398.020782 475.016846,366.537170 
M582.883850,271.301727 
	C571.426941,271.301727 559.970093,271.301727 548.829529,271.301727 
	C547.807983,272.922943 548.218689,274.098358 548.468201,275.186615 
	C553.430664,296.833160 553.753540,318.693756 551.478027,340.664459 
	C550.828735,346.933594 551.650146,352.433807 555.294678,358.099243 
	C573.375610,386.206146 593.753113,412.490356 616.233765,437.177948 
	C616.950562,437.965057 617.506775,439.236694 619.135254,438.843689 
	C620.023743,436.431885 621.164429,434.030396 621.800293,431.501984 
	C628.373047,405.364960 635.035278,379.247650 641.204102,353.014709 
	C642.191162,348.817230 644.252441,344.190277 641.195740,339.548187 
	C625.856689,316.254303 609.275635,293.974060 589.146118,274.524200 
	C587.602234,273.032410 586.207703,271.258820 582.883850,271.301727 
M480.412720,378.869904 
	C460.039215,409.054962 436.691833,436.789215 411.042511,462.590332 
	C408.101196,465.549042 407.173767,468.174072 408.229614,472.221771 
	C412.256653,487.660126 416.065155,503.157440 419.752808,518.680847 
	C420.539673,521.993225 422.273804,522.869019 425.374542,522.855103 
	C444.528961,522.768799 463.684753,522.699707 482.837982,522.867249 
	C486.665070,522.900696 488.449738,521.344055 489.901886,518.046204 
	C497.082611,501.738525 503.702667,485.213898 509.923889,468.518463 
	C511.405029,464.543701 511.273926,461.029938 509.922729,457.010651 
	C502.444244,434.764130 496.111511,412.191162 491.557465,389.144653 
	C490.269562,382.627136 488.934998,376.118805 487.446808,368.738281 
	C484.803467,372.551483 482.816223,375.418213 480.412720,378.869904 
M537.448486,498.125488 
	C540.354248,504.844360 543.399719,511.507660 546.104675,518.306396 
	C547.387207,521.529968 549.165955,522.910950 552.765015,522.867310 
	C566.913269,522.695984 581.065308,522.765381 595.215210,522.857971 
	C597.943604,522.875854 599.480286,522.076965 600.166687,519.234497 
	C604.028137,503.245331 608.030884,487.290283 611.966980,471.319000 
	C612.077209,470.871765 611.980957,470.373596 611.980957,470.082367 
	C611.015747,468.809448 608.525574,469.729218 608.781738,467.356201 
	C615.759460,463.278870 617.559509,455.340454 612.690674,450.114471 
	C590.068237,425.832520 569.229736,400.136536 550.984741,372.377472 
	C550.335205,371.389252 550.085022,369.850281 548.337341,369.708099 
	C548.080078,370.545105 547.742249,371.318329 547.608826,372.125366 
	C542.661560,402.053375 534.699585,431.209747 525.062073,459.929718 
	C524.255920,462.332153 524.441772,464.448334 525.312500,466.692139 
	C529.283386,476.925018 533.223389,487.169983 537.448486,498.125488 
M688.242920,427.194000 
	C676.690186,401.424713 663.874268,376.324982 648.692993,351.481903 
	C647.727661,354.796478 646.951660,357.142242 646.362305,359.533997 
	C640.594849,382.939178 635.684937,406.599213 628.785156,429.664459 
	C625.005554,442.299286 626.397339,451.173431 637.005127,459.412872 
	C642.109314,463.377441 646.434753,466.874908 653.236084,466.040985 
	C656.119934,465.687439 659.311035,465.620758 662.146667,467.955841 
	C658.288818,470.403839 653.996216,467.896271 649.945374,471.038971 
	C672.499146,492.013489 696.132019,510.854340 722.520264,526.274841 
	C718.847229,508.814789 713.687317,492.135803 707.442200,475.865234 
	C701.284851,459.823608 696.105957,443.381104 688.242920,427.194000 
M344.361908,434.786987 
	C340.335510,444.764801 336.309143,454.742645 332.269562,464.753174 
	C336.255798,467.202209 340.862854,464.473663 344.226288,467.928406 
	C342.095703,469.676514 339.838684,469.299469 337.826050,469.164825 
	C332.506927,468.809021 329.611145,470.969879 328.112396,476.228302 
	C325.879791,484.061371 322.768158,491.639679 320.369659,499.430786 
	C317.608093,508.401276 314.583435,517.319214 312.516663,527.539001 
	C339.898254,511.109131 363.600677,491.635742 385.946411,471.204620 
	C386.092957,469.009705 383.422028,469.224030 384.202057,467.186920 
	C385.469818,466.201630 387.156219,466.230804 388.792816,466.001709 
	C395.222015,465.101776 399.191803,459.052399 397.634308,452.886200 
	C393.926910,438.208679 390.315857,423.506775 386.672302,408.813171 
	C383.488037,395.971588 380.312531,383.127869 376.849365,369.138824 
	C364.640289,390.943817 354.141876,412.260895 344.361908,434.786987 
M533.687134,384.309967 
	C534.987732,377.113800 536.125366,369.883148 537.637085,362.731598 
	C539.009460,356.239166 538.091431,350.561066 534.417053,344.804901 
	C528.954468,336.247131 524.605347,327.021881 520.503784,317.709595 
	C519.894348,316.325867 519.678528,314.426544 517.321777,313.980591 
	C511.518158,326.698700 505.001068,339.054443 498.090729,351.203339 
	C496.938690,353.228790 497.238861,355.416443 497.552948,357.553619 
	C500.820648,379.788208 505.506073,401.732147 511.590271,423.356720 
	C513.419250,429.857452 514.702515,436.622406 518.226135,443.647095 
	C524.658142,423.702423 529.493958,404.527679 533.687134,384.309967 
M375.788910,340.434448 
	C376.441010,341.719330 376.151611,343.422485 377.860352,344.663452 
	C393.927582,318.979706 411.399109,294.396332 432.391113,272.552429 
	C430.852173,270.916565 429.428741,271.325043 428.171326,271.325897 
	C417.514313,271.333160 406.845459,271.109070 396.203186,271.533112 
	C380.339569,272.165161 362.422089,285.114716 367.907776,308.711884 
	C370.318848,319.083313 372.979187,329.396820 375.788910,340.434448 
M538.186157,742.983643 
	C517.606384,742.983643 497.026642,742.983643 476.396393,742.983643 
	C478.170959,765.669373 488.060333,781.841675 512.198914,780.636292 
	C533.377991,779.578674 542.475586,764.508362 543.464539,743.287903 
	C542.007446,743.190063 540.542969,743.091675 538.186157,742.983643 
M564.869751,581.545227 
	C562.979614,578.598633 562.155396,575.076904 557.128784,575.127380 
	C530.988892,575.389648 504.844940,575.246399 478.702423,575.262146 
	C477.070740,575.263123 475.191284,574.879639 474.105743,576.522583 
	C471.030548,581.176880 468.136780,585.940979 465.726562,591.490295 
	C500.877411,591.490295 535.315247,591.490295 570.025146,591.490295 
	C568.992310,587.649902 566.668152,585.142029 564.869751,581.545227 
M639.191223,276.225037 
	C627.930786,269.372528 615.652405,271.481079 602.490295,271.507599 
	C619.269104,288.990967 633.176941,307.287628 646.389587,326.450256 
	C649.817139,320.580597 650.705872,314.827972 652.068054,309.213470 
	C655.432922,295.343811 651.532410,284.894531 639.191223,276.225037 
M532.492126,549.589111 
	C537.352844,549.589111 542.213562,549.589111 547.891357,549.589111 
	C544.671631,542.876404 542.003845,537.348022 539.368896,531.804077 
	C538.346558,529.652954 536.548462,529.296082 534.401062,529.304016 
	C523.419250,529.344849 512.437073,529.312561 501.455048,529.308350 
	C499.771118,529.307678 497.945465,529.238220 497.067352,531.008606 
	C494.153595,536.882996 491.346985,542.810486 488.078308,549.590820 
	C503.304138,549.590820 517.399780,549.590820 532.492126,549.589111 
M493.587402,556.000549 
	C484.063263,556.339844 480.512817,559.424927 479.856445,568.181152 
	C505.502930,568.181152 531.126892,568.181152 557.257751,568.181152 
	C556.344604,566.205444 555.552795,564.919739 555.138428,563.522156 
	C553.318237,557.382629 549.004700,555.825928 543.028259,555.915771 
	C526.875549,556.158691 510.716827,555.999390 493.587402,556.000549 
M564.487915,605.726746 
	C569.026367,605.495605 573.652283,606.292358 578.265076,605.045471 
	C577.211426,601.176086 575.430725,599.412354 571.553467,599.043762 
	C563.887878,598.314758 556.264099,599.005127 548.629517,598.987183 
	C520.824646,598.921753 493.019135,599.166992 465.213959,599.152832 
	C461.044342,599.150757 458.638794,600.727478 457.554626,605.725586 
	C493.047394,605.725586 528.269653,605.725586 564.487915,605.726746 
M523.586731,494.824707 
	C521.882446,490.560486 520.178101,486.296265 517.998108,480.841766 
	C512.107849,495.281281 506.705383,508.525177 501.045471,522.400146 
	C512.638062,522.400146 523.315674,522.400146 534.914856,522.400146 
	C531.019409,512.971497 527.422241,504.264801 523.586731,494.824707 
M507.879089,306.439545 
	C509.068909,302.717163 512.224854,299.379700 511.171570,295.234680 
	C509.334900,288.007050 506.980286,280.911407 504.867432,273.753174 
	C504.526520,272.598114 504.229645,271.507538 502.744965,271.378632 
	C501.093079,271.235199 500.336151,272.235443 499.853363,273.573029 
	C499.516022,274.507599 499.214081,275.459961 498.972931,276.423523 
	C495.118561,291.826172 494.171906,307.517395 494.473297,323.313263 
	C494.518066,325.657837 495.203949,327.990204 495.736511,331.188751 
	C500.782196,322.972229 503.951660,314.936920 507.879089,306.439545 
M539.808716,292.504425 
	C539.480652,286.480286 537.869873,280.690338 536.533936,274.854645 
	C536.168274,273.257294 535.730469,271.465210 533.559753,271.378418 
	C531.159668,271.282410 531.180054,273.362213 530.730347,274.848694 
	C528.803406,281.218109 526.979675,287.618683 525.083130,293.997406 
	C524.702148,295.278748 524.124146,296.531586 524.628601,297.880585 
	C528.926941,309.373718 534.079346,320.463135 540.309875,331.866791 
	C542.278137,318.454193 541.270935,305.923096 539.808716,292.504425 
M444.524536,568.714783 
	C448.846558,568.712585 453.168640,568.726929 457.490540,568.704651 
	C465.263519,568.664551 468.911713,565.129578 469.805023,556.561279 
	C456.471863,556.561279 443.171082,556.561279 429.834778,556.561279 
	C430.712524,568.370605 431.105408,568.744202 442.042694,568.716736 
	C442.541382,568.715515 443.040070,568.715088 444.524536,568.714783 
M566.563416,560.081055 
	C568.369995,562.818054 568.746704,567.239380 571.936279,568.141357 
	C576.658203,569.476562 582.018555,569.635803 586.691895,568.136841 
	C590.151917,567.026978 589.187622,562.391296 590.228821,559.344971 
	C590.471924,558.633606 590.264648,557.768250 590.264648,556.443542 
	C582.677917,555.789124 575.269836,555.826721 567.848022,556.331116 
	C565.575867,556.485535 565.558044,557.762817 566.563416,560.081055 
M549.332458,263.269348 
	C548.518555,263.582214 547.309814,262.793823 546.709106,264.414856 
	C556.788818,264.414856 566.698486,264.414856 577.239380,264.414856 
	C574.830933,261.271454 572.106140,259.905182 569.813477,258.026642 
	C568.407959,256.874969 567.204590,257.023346 565.854309,258.234161 
	C561.370117,262.255157 555.935181,263.417419 549.332458,263.269348 
M476.487244,263.187897 
	C470.805542,263.187897 465.123810,263.187897 459.442108,263.187897 
	C459.449738,263.585602 459.457367,263.983276 459.464996,264.380981 
	C469.131592,264.380981 478.798218,264.380981 488.464813,264.380981 
	C488.480621,263.983002 488.496429,263.585022 488.512238,263.187042 
	C484.832794,263.187042 481.153320,263.187042 476.487244,263.187897 
M622.399536,460.898224 
	C620.625061,461.849609 620.905212,463.496948 620.846069,465.198059 
	C622.888000,466.141876 624.761414,466.230743 627.198792,465.023315 
	C625.533264,463.473785 624.245422,462.275604 622.399536,460.898224 
M445.233765,600.452576 
	C444.057587,598.712585 442.155823,598.697571 441.082947,599.869995 
	C439.592926,601.498169 440.957001,603.047546 442.163544,604.314575 
	C443.982361,603.764709 444.595306,602.434998 445.233765,600.452576 
z"/>
<path fill="#000000" opacity="1.000000" stroke="none" 
	d="
M546.437988,181.407669 
	C534.483459,192.144073 520.467651,188.695908 513.117310,173.544724 
	C507.173920,184.704254 500.570496,188.684402 490.469116,187.195679 
	C482.730286,186.055176 476.726257,180.134644 475.119293,172.059402 
	C473.730896,165.082352 477.591431,158.433136 487.187256,152.450226 
	C484.537903,152.450226 482.823303,152.145798 481.254425,152.495346 
	C452.038544,159.004669 422.619629,164.608734 394.404083,175.119019 
	C343.744080,193.989853 298.287048,221.047226 260.285431,259.768097 
	C218.936646,301.899506 192.488297,352.014252 181.214813,410.073395 
	C180.681625,412.819366 182.112946,417.909515 175.834808,416.723175 
	C169.575439,415.540405 168.730438,414.664520 169.985458,408.055054 
	C179.463898,358.137573 200.168076,313.403412 232.304596,274.051971 
	C264.111267,235.104340 303.193787,205.387344 348.141724,183.084732 
	C384.656830,164.966339 423.087219,152.902161 463.100311,145.557968 
	C471.093445,144.090866 478.827332,141.188187 487.152130,141.661743 
	C493.674927,142.032791 498.763428,144.544098 501.392944,150.795609 
	C502.289520,152.927170 503.722382,154.332657 505.610352,155.514175 
	C509.330566,157.842224 511.283569,161.486801 513.154480,165.949890 
	C515.117981,155.736649 525.012939,153.524414 531.111328,147.519547 
	C536.108704,142.598755 543.534546,143.902176 549.812744,145.105179 
	C592.416565,153.268784 634.316956,163.871857 673.597107,182.938690 
	C742.454956,216.362762 797.285461,264.563141 831.976074,333.826721 
	C843.138184,356.113068 850.941650,379.605743 856.083435,403.987915 
	C856.457092,405.759918 856.909180,407.515381 857.309387,409.213287 
	C857.006897,409.546356 856.830750,409.929596 856.569641,410.000610 
	C846.161621,412.832733 846.248474,412.809235 843.793030,401.926575 
	C832.307861,351.023285 808.626587,306.523315 772.953979,268.513580 
	C723.221985,215.523209 661.564636,183.249680 591.802368,165.443268 
	C576.547546,161.549561 561.044128,158.629990 545.034485,155.125946 
	C552.797302,166.427429 553.096497,172.961853 546.437988,181.407669 
z"/>
<path fill="#000000" opacity="1.000000" stroke="none" 
	d="
M319.694885,869.996704 
	C319.273926,858.694885 320.728455,847.823303 318.773621,837.084717 
	C316.671356,825.536194 306.492676,817.385010 295.750000,818.382568 
	C282.417267,819.620605 272.342560,829.706055 272.323120,841.872742 
	C272.303650,854.036621 272.318207,866.200562 272.315948,878.364441 
	C272.315704,879.697449 272.379333,881.036316 272.275696,882.361755 
	C272.166443,883.759094 272.658295,885.800842 270.514038,885.878174 
	C267.995300,885.968933 268.428375,883.808044 268.434448,882.208984 
	C268.474701,871.712769 268.587433,861.216797 268.592957,850.720703 
	C268.598328,840.558655 268.497742,830.396667 268.458527,820.234619 
	C268.452362,818.636475 267.919159,816.489502 270.448212,816.500366 
	C272.604736,816.509583 272.249542,818.509583 272.309052,819.937195 
	C272.384552,821.748291 272.327332,823.564880 272.327332,826.860840 
	C279.771271,818.782898 287.670349,814.444763 297.829651,814.579468 
	C308.492920,814.720764 315.695374,819.915100 320.789520,828.515198 
	C322.610077,828.659241 322.882996,827.253052 323.542175,826.414734 
	C331.478760,816.321655 344.744293,811.925598 356.123871,815.665161 
	C367.137909,819.284668 373.843658,828.832397 374.161865,842.332947 
	C374.471954,855.489624 374.289978,868.658508 374.250763,881.821838 
	C374.246246,883.339600 374.871460,885.717529 372.509277,885.837219 
	C369.832611,885.972900 370.182892,883.451477 370.161621,881.738037 
	C369.992249,868.084290 370.152405,854.421631 369.716187,840.777527 
	C369.320709,828.406433 361.364777,819.929565 349.570435,818.438477 
	C339.723328,817.193542 327.159302,825.167480 323.836243,834.767883 
	C322.762146,837.870911 323.273376,841.069824 323.507843,844.184326 
	C324.435486,856.505615 323.661224,868.835815 323.915344,881.157776 
	C323.932434,881.987366 323.887848,882.829407 323.759857,883.648132 
	C323.575073,884.830505 323.280060,886.047363 321.700592,885.948425 
	C320.209717,885.854919 319.804718,884.726196 319.786346,883.490662 
	C319.722076,879.159546 319.720825,874.827454 319.694885,869.996704 
z"/>
<path fill="#000000" opacity="1.000000" stroke="none" 
	d="
M658.002563,863.009521 
	C663.555725,869.676514 668.899475,876.056580 674.190002,882.480591 
	C675.281921,883.806458 677.326721,885.361328 675.061768,887.035706 
	C672.981812,888.573303 671.789734,886.391602 670.671082,885.056641 
	C663.722839,876.764771 656.828064,868.428101 649.896362,860.122253 
	C648.954956,858.994263 648.274109,857.573181 645.941101,856.765747 
	C642.638855,862.431458 639.261475,868.246887 635.863464,874.050171 
	C632.454224,879.872437 629.024414,885.682617 625.625000,891.461853 
	C623.189392,890.316406 623.810730,888.596313 623.808899,887.244263 
	C623.768433,857.278198 623.781921,827.312134 623.796448,797.346008 
	C623.796936,796.350952 623.821960,795.338318 624.004517,794.365601 
	C624.208313,793.280029 624.936462,792.622375 626.110901,792.674255 
	C627.277954,792.725769 627.964478,793.403992 628.055420,794.532471 
	C628.175659,796.022827 628.214600,797.523071 628.215271,799.019104 
	C628.225891,822.659119 628.224854,846.299072 628.226440,869.939087 
	C628.226562,872.024658 628.226440,874.110291 628.226440,876.195862 
	C628.584656,876.288818 628.942871,876.381775 629.301086,876.474731 
	C634.614746,867.325562 639.942078,858.184387 645.238159,849.025085 
	C650.569946,839.804138 655.869324,830.564514 661.187256,821.335571 
	C661.685425,820.470947 662.159058,819.583862 662.743469,818.779419 
	C663.518738,817.712280 664.331543,816.376831 665.943359,817.271301 
	C667.818115,818.311890 667.040161,819.814758 666.289307,821.137756 
	C662.921265,827.071716 659.548279,833.003479 656.107849,838.895569 
	C648.777283,851.450317 648.759766,851.440125 658.002563,863.009521 
z"/>
<path fill="#000000" opacity="1.000000" stroke="none" 
	d="
M533.880493,876.868469 
	C518.303711,891.389099 495.784760,891.093323 481.519775,876.436890 
	C468.018616,862.565308 467.944153,839.408997 481.356659,825.709290 
	C495.511627,811.251038 518.803650,810.667358 533.178406,824.410461 
	C547.718140,838.311340 548.133789,861.078552 533.880493,876.868469 
M535.077209,868.516907 
	C538.689026,862.728088 540.875183,856.394348 540.354431,849.604797 
	C538.766418,828.902649 520.386108,815.830688 501.413422,819.240784 
	C485.735352,822.058655 472.735596,839.942749 475.749390,855.555664 
	C478.485626,869.730774 486.745789,879.125732 500.626282,882.450195 
	C514.653748,885.809937 526.038086,880.494080 535.077209,868.516907 
z"/>
<path fill="#000000" opacity="1.000000" stroke="none" 
	d="
M414.843872,815.429077 
	C435.771790,811.527527 453.854675,823.006836 458.513916,842.780701 
	C462.949097,861.603638 451.635193,880.989563 433.189789,886.172729 
	C413.270050,891.770325 392.938293,880.452820 387.749634,860.878845 
	C382.273163,840.219116 393.717377,820.760803 414.843872,815.429077 
M409.955536,821.376892 
	C394.959534,828.750854 387.753448,843.324768 391.431488,858.840881 
	C394.690521,872.589355 408.975342,884.141052 422.883667,883.501282 
	C437.091736,882.847717 447.451111,875.926697 453.092377,862.611084 
	C457.867188,851.340637 454.974579,837.662598 446.008240,828.474060 
	C436.671997,818.906372 423.457153,816.149353 409.955536,821.376892 
z"/>
<path fill="#000000" opacity="1.000000" stroke="none" 
	d="
M560.283447,840.353882 
	C560.282227,854.135193 560.334473,867.457153 560.223816,880.777710 
	C560.208313,882.643066 561.380859,885.863281 558.023071,885.804626 
	C555.279785,885.756775 555.960266,882.849304 555.956360,880.988708 
	C555.913879,861.007263 555.933105,841.025574 555.935913,821.044006 
	C555.936035,820.378052 555.899170,819.708496 555.953857,819.046814 
	C556.067200,817.675232 556.295715,816.228943 558.038452,816.170105 
	C559.813538,816.110107 560.158325,817.521667 560.200684,818.918091 
	C560.265320,821.046509 560.217590,823.178345 560.217590,825.453369 
	C562.643982,825.240234 563.255371,823.450684 564.433289,822.424072 
	C573.672058,814.372009 584.243164,812.108093 595.547852,816.589844 
	C606.773376,821.040222 611.154663,830.505066 611.289368,842.080200 
	C611.442383,855.233398 611.368164,868.389832 611.293274,881.544373 
	C611.284119,883.153625 612.167297,885.807129 609.392517,885.845215 
	C606.799438,885.880737 607.188232,883.291931 607.165955,881.603760 
	C606.979187,867.453918 607.177002,853.292725 606.681519,839.155273 
	C606.276001,827.587219 596.418091,818.492676 585.098267,818.391174 
	C572.660217,818.279663 560.995789,828.387817 560.283447,840.353882 
z"/>
<path fill="#000000" opacity="1.000000" stroke="none" 
	d="
M150.000107,944.878723 
	C139.802719,944.728760 130.062317,945.386169 119.821785,943.764587 
	C123.620995,941.209717 314.614746,940.887451 319.023346,943.780518 
	C305.232452,945.560181 291.315521,944.842712 277.450775,944.981201 
	C263.291107,945.122620 249.128738,944.998047 234.967560,944.982300 
	C220.972992,944.966736 206.978409,944.938904 192.983841,944.921753 
	C178.822586,944.904358 164.661316,944.893372 150.000107,944.878723 
z"/>
<path fill="#000000" opacity="1.000000" stroke="none" 
	d="
M723.000732,941.707153 
	C783.371155,941.729126 843.242126,941.707764 903.106445,942.444519 
	C898.961975,945.507385 712.815063,945.810913 704.685486,942.948608 
	C710.459656,940.983765 716.555054,942.052063 723.000732,941.707153 
z"/>
<path fill="#000000" opacity="1.000000" stroke="none" 
	d="
M452.492706,918.326050 
	C460.895111,912.961426 468.233276,914.615356 474.918427,920.837891 
	C476.161774,919.451721 474.909943,917.108154 478.206512,916.253723 
	C477.754486,928.260681 480.499237,940.155823 476.665466,951.608337 
	C474.757599,957.307617 469.080750,960.070251 463.015839,960.017395 
	C456.564636,959.961243 451.572388,956.845703 448.759155,950.789795 
	C448.286499,949.772217 447.556458,948.701233 448.801117,947.384338 
	C451.321198,947.758972 451.478149,950.360840 452.655457,951.923950 
	C456.213074,956.647156 462.204712,958.349121 467.827118,956.042236 
	C473.536224,953.699890 476.131714,948.970520 475.190704,942.624756 
	C464.594574,950.599304 455.905884,950.721008 449.424133,943.015930 
	C443.226166,935.648254 444.915131,923.189819 452.492706,918.326050 
M468.418884,944.177307 
	C476.739380,937.462646 478.203735,927.917053 471.834839,921.909729 
	C466.853668,917.211365 459.389526,916.739319 454.059235,920.785400 
	C448.279419,925.172607 446.657135,932.782104 450.171631,939.020752 
	C453.701172,945.286133 460.331390,947.376831 468.418884,944.177307 
z"/>
<path fill="#000000" opacity="1.000000" stroke="none" 
	d="
M710.865173,859.000000 
	C710.863525,846.839539 710.855652,835.179077 710.860107,823.518616 
	C710.860657,822.020630 710.870667,820.518799 710.974976,819.025635 
	C711.080261,817.519043 711.829651,816.456604 713.470154,816.507507 
	C715.006470,816.555176 715.261963,817.712158 715.297729,818.975159 
	C715.320801,819.790955 715.398682,820.605225 715.495483,822.084656 
	C719.291504,819.258789 722.530029,816.332825 726.865845,815.530212 
	C728.494202,815.228760 730.138794,814.938477 731.787292,814.846436 
	C733.128418,814.771606 734.668274,814.950684 734.809204,816.698853 
	C734.945862,818.394409 733.594177,818.853577 732.181396,819.082214 
	C730.222290,819.399231 728.162781,819.461853 726.331116,820.135803 
	C719.400818,822.685974 715.309387,828.723755 715.280518,836.356628 
	C715.223755,851.348755 715.287964,866.341309 715.206360,881.333191 
	C715.196716,883.102661 716.064270,885.977112 712.933777,885.859375 
	C710.400696,885.764160 710.911377,883.216797 710.897034,881.488464 
	C710.836060,874.159424 710.866028,866.829529 710.865173,859.000000 
z"/>
<path fill="#000000" opacity="1.000000" stroke="none" 
	d="
M604.771912,932.852661 
	C606.148926,916.149109 618.413696,911.068604 634.419922,920.308350 
	C635.746521,915.455017 633.757812,910.193054 636.720215,905.551697 
	C638.498779,919.528809 637.962097,933.489746 637.704651,947.223877 
	C635.845520,947.768494 635.422791,947.065491 635.068665,946.293945 
	C634.734741,945.566223 634.438232,944.821228 633.881836,943.510132 
	C627.563538,948.238647 621.061462,951.047058 613.568787,946.954346 
	C608.125305,943.980957 605.572571,939.212219 604.771912,932.852661 
M607.613770,930.939331 
	C607.212830,932.633362 607.719299,934.224060 608.165771,935.823059 
	C610.286377,943.417358 617.459900,947.630493 624.672852,945.515625 
	C631.795532,943.427307 636.460632,934.894104 634.450623,927.630371 
	C632.541443,920.730774 625.103760,916.550659 617.938782,918.513123 
	C612.030334,920.131348 608.868286,924.291992 607.613770,930.939331 
z"/>
<path fill="#000000" opacity="1.000000" stroke="none" 
	d="
M370.155273,934.982422 
	C369.761841,939.496521 371.025116,943.689392 369.146454,947.647217 
	C366.074127,947.007935 367.694458,944.149292 366.416962,942.819824 
	C356.891937,950.273987 349.179413,950.825562 342.320099,944.552551 
	C336.380096,939.120422 335.308014,929.628662 339.847290,922.660339 
	C345.151642,914.517517 352.623596,913.628601 366.411926,919.637207 
	C368.053711,915.007446 365.596802,909.772339 368.813171,905.320557 
	C370.933868,909.884949 369.969055,914.777954 370.129974,919.508240 
	C370.299591,924.495300 370.158844,929.493042 370.155273,934.982422 
M351.849548,945.860840 
	C359.035889,947.179260 364.840546,940.965149 366.437012,935.502930 
	C368.216888,929.413269 366.034943,923.257202 360.951508,920.191833 
	C355.918732,917.156860 350.729034,917.155945 345.878143,920.438782 
	C341.215424,923.594238 339.196777,928.302917 339.982971,933.859497 
	C340.888184,940.256714 344.441284,944.496094 351.849548,945.860840 
z"/>
<path fill="#000000" opacity="1.000000" stroke="none" 
	d="
M407.581268,930.436768 
	C402.471680,932.586975 397.308624,931.680115 392.236176,931.914368 
	C389.914642,932.021606 387.572601,931.792847 385.261108,931.979614 
	C382.737274,932.183533 379.081604,930.539978 377.987152,933.385742 
	C376.730316,936.653748 379.203674,939.706848 381.634277,942.051147 
	C386.778015,947.012085 394.447876,947.132324 400.305878,942.615540 
	C401.629822,941.594727 402.427856,939.648621 404.621552,939.609070 
	C403.728577,945.261475 397.060822,949.384521 390.206543,948.782837 
	C380.940002,947.969360 374.523071,940.741272 374.676941,931.290283 
	C374.819336,922.543091 381.466888,915.705322 390.448151,915.067871 
	C399.132660,914.451416 406.559753,920.911926 407.581268,930.436768 
M401.846313,922.641418 
	C397.332397,917.895081 391.854675,916.851440 385.940308,919.139465 
	C382.049927,920.644470 378.923218,923.255005 378.548004,928.550720 
	C387.355499,928.943726 395.756348,929.261780 404.099609,928.384033 
	C404.268677,925.882874 403.242798,924.559814 401.846313,922.641418 
z"/>
<path fill="#000000" opacity="1.000000" stroke="none" 
	d="
M750.099243,828.042542 
	C750.094482,825.057678 750.012207,822.561646 750.117188,820.073547 
	C750.185974,818.442810 750.207764,816.339539 752.552795,816.505432 
	C754.617615,816.651489 754.266602,818.638611 754.276611,820.063477 
	C754.317444,825.879761 754.284973,831.696594 754.284729,837.513184 
	C754.284058,852.137756 754.316162,866.762512 754.245361,881.386780 
	C754.237427,883.028931 755.070190,885.736877 752.497375,885.850037 
	C749.405396,885.986023 750.423462,883.201660 750.411865,881.371094 
	C750.300232,863.759033 750.202759,846.146912 750.099243,828.042542 
z"/>
<path fill="#000000" opacity="1.000000" stroke="none" 
	d="
M691.077393,839.007812 
	C691.094238,832.359375 691.087158,826.208862 691.142944,820.058960 
	C691.157898,818.409485 691.090637,816.349731 693.446533,816.409912 
	C695.576355,816.464294 695.286682,818.453918 695.288452,819.872925 
	C695.314270,840.680664 695.313477,861.488464 695.267944,882.296143 
	C695.264587,883.844421 695.614624,886.129272 693.072876,885.891296 
	C690.814697,885.679810 691.145752,883.513000 691.140503,881.916138 
	C691.094482,867.779541 691.092224,853.642761 691.077393,839.007812 
z"/>
<path fill="#000000" opacity="1.000000" stroke="none" 
	d="
M660.040649,917.812744 
	C667.220154,913.648743 673.906738,914.270325 679.828857,919.203857 
	C685.231323,923.704529 687.308838,929.762573 685.162659,936.689331 
	C683.051147,943.503845 678.321167,947.558472 671.182251,948.539673 
	C663.540649,949.589966 656.577393,945.478333 653.623230,938.289856 
	C650.585022,930.896790 652.794373,923.541687 660.040649,917.812744 
M667.763733,945.750610 
	C675.178650,945.656982 680.737976,942.042664 682.434021,936.212891 
	C684.276855,929.878418 681.928772,923.229736 676.590637,920.122620 
	C671.184937,916.976135 665.725464,917.278625 660.667664,920.786499 
	C655.773682,924.180664 654.347778,929.316040 655.479553,934.868103 
	C656.717590,940.941345 660.625244,944.731689 667.763733,945.750610 
z"/>
<path fill="#000000" opacity="1.000000" stroke="none" 
	d="
M508.062073,923.476440 
	C509.272980,931.817627 509.670319,939.747192 508.294800,948.096741 
	C505.408875,946.487549 505.974152,944.464172 505.930420,942.745361 
	C505.799438,937.597229 505.951721,932.439026 505.719543,927.297119 
	C505.467010,921.705139 501.808594,918.145203 496.635254,918.064148 
	C490.717560,917.971313 486.263855,921.865540 486.049133,927.630432 
	C485.863739,932.608276 486.058105,937.599182 485.965668,942.582153 
	C485.933655,944.308594 486.466064,946.289795 483.343201,948.490356 
	C482.618744,937.205078 482.990204,926.837585 483.648285,916.225891 
	C485.835052,917.496765 486.965088,918.716370 489.466705,917.285522 
	C497.382294,912.757996 503.671967,914.934692 508.062073,923.476440 
z"/>
<path fill="#000000" opacity="1.000000" stroke="none" 
	d="
M597.722473,924.126221 
	C597.985291,921.333069 597.061951,918.779053 599.733887,915.399902 
	C599.733887,926.985229 599.733887,937.174805 599.733887,948.411255 
	C597.618164,945.390503 596.013428,945.924316 593.674316,947.238831 
	C585.713135,951.712708 576.844177,947.691956 575.272888,938.812561 
	C574.053101,931.919006 574.656006,924.867188 574.969727,917.883606 
	C574.993042,917.364807 575.624634,916.873291 576.010010,916.316284 
	C578.442322,917.794495 577.646912,919.895935 577.618286,921.796753 
	C577.550659,926.291077 577.245300,930.799255 577.490479,935.276917 
	C577.881714,942.420471 581.521545,946.165894 587.406677,946.026978 
	C593.945251,945.872742 597.645996,941.775208 597.703064,934.597473 
	C597.729553,931.265808 597.717407,927.933960 597.722473,924.126221 
z"/>
<path fill="#000000" opacity="1.000000" stroke="none" 
	d="
M429.458862,934.860962 
	C432.247681,939.348267 431.569855,943.193054 428.160950,946.452698 
	C425.016388,949.459717 421.260742,949.772217 417.621033,947.458679 
	C414.454926,945.446106 412.399384,942.658936 413.393311,938.385925 
	C415.926819,938.859314 415.492279,941.026611 416.301910,942.295715 
	C417.890808,944.786377 419.986603,946.133362 422.939636,945.789368 
	C425.735992,945.463684 427.486694,943.637451 428.169769,941.073975 
	C428.897095,938.344299 427.425964,936.191711 425.366394,934.604553 
	C422.605652,932.476990 418.978394,931.672485 416.494507,929.112671 
	C413.849518,926.386963 412.742737,923.247986 414.572632,919.578491 
	C416.156464,916.402588 418.832642,914.806030 422.271332,915.170959 
	C426.050598,915.572021 428.715668,917.701904 429.703156,921.552490 
	C429.877319,922.231689 429.705231,922.856262 428.969360,923.321716 
	C427.221375,923.473938 427.170624,921.772339 426.452576,920.793030 
	C424.929840,918.716309 422.942444,917.759277 420.384979,918.344971 
	C418.442322,918.789917 417.109253,920.097168 416.591248,921.956482 
	C415.842651,924.643372 417.517151,926.400085 419.437500,927.828918 
	C422.613556,930.192139 426.757202,931.150269 429.458862,934.860962 
z"/>
<path fill="#000000" opacity="1.000000" stroke="none" 
	d="
M541.729858,915.182495 
	C546.333984,916.253357 548.808533,918.605103 549.147095,923.402405 
	C546.125916,923.163696 546.232849,920.924500 545.069824,919.879028 
	C542.612488,917.669922 539.913147,917.255615 537.467957,919.523254 
	C534.954102,921.854431 535.050781,924.797180 537.663940,926.915222 
	C540.223816,928.990234 543.337524,930.365601 546.087463,932.226440 
	C550.023254,934.889893 551.403137,938.684448 549.704956,943.113403 
	C548.175598,947.102173 544.905396,949.038818 540.614685,948.707642 
	C536.273682,948.372559 532.691650,944.581543 532.193665,940.106934 
	C532.117004,939.418091 532.304260,938.798645 533.355225,938.377380 
	C534.830994,939.152405 534.798706,941.026062 535.577820,942.346985 
	C537.089111,944.909302 539.265564,946.089172 542.228333,945.842590 
	C544.881592,945.621765 546.486023,944.084900 547.296082,941.677917 
	C548.300049,938.695129 547.027710,936.398560 544.678040,934.751282 
	C542.643188,933.324646 540.335022,932.294861 538.219727,930.974304 
	C534.771729,928.821655 532.127869,925.988831 533.018066,921.594666 
	C533.895386,917.264404 537.005066,915.269470 541.729858,915.182495 
z"/>
<path fill="#000000" opacity="1.000000" stroke="none" 
	d="
M564.266479,913.448242 
	C564.927124,916.723938 568.343994,914.865906 569.854675,917.485168 
	C562.341125,918.661621 564.168823,924.354736 564.102783,929.180481 
	C564.039001,933.838684 564.123840,938.499084 564.039795,943.156738 
	C564.011536,944.724121 564.497375,946.544250 562.653442,947.681274 
	C560.283813,946.797607 560.963623,944.702881 560.935425,943.054077 
	C560.835876,937.231934 560.775574,931.404236 560.925415,925.584473 
	C561.029297,921.550354 560.989868,917.846619 555.342529,917.671814 
	C556.598389,914.844910 561.167542,916.647217 560.924988,912.574829 
	C560.787781,910.270752 560.091492,907.547241 562.485840,905.539246 
	C564.951172,907.693787 563.702759,910.580505 564.266479,913.448242 
z"/>
<path fill="#000000" opacity="1.000000" stroke="none" 
	d="
M523.442261,947.511230 
	C519.538391,948.119751 517.243713,946.808777 516.762146,943.102356 
	C516.376831,940.136536 517.405334,937.807495 520.371826,936.815063 
	C523.159119,935.882629 525.386780,937.082825 526.613831,939.526794 
	C528.327332,942.939819 527.076538,945.593018 523.442261,947.511230 
z"/>
<path fill="#000000" opacity="1.000000" stroke="none" 
	d="
M436.790588,922.268005 
	C437.101349,919.999390 436.037048,917.761536 439.580109,915.895508 
	C440.287384,926.864807 439.902649,937.157898 438.921844,947.511230 
	C435.643860,943.925049 437.094238,939.628906 436.858734,935.657715 
	C436.603973,931.361511 436.795959,927.038879 436.790588,922.268005 
z"/>
<path fill="#000000" opacity="1.000000" stroke="none" 
	d="
M756.198059,800.457764 
	C752.901550,803.117920 750.048706,802.961304 747.849548,799.732300 
	C746.068298,797.116882 746.787415,794.602478 749.235413,792.752075 
	C751.140320,791.312195 753.327820,791.276001 755.241699,792.736206 
	C757.901489,794.765381 758.248047,797.328918 756.198059,800.457764 
z"/>
<path fill="#000000" opacity="1.000000" stroke="none" 
	d="
M688.107300,797.817749 
	C689.474060,792.351746 692.593018,790.418579 696.008057,792.544250 
	C698.021912,793.797852 698.979614,795.703796 698.535583,798.031616 
	C698.091553,800.358826 696.499329,801.835938 694.164978,802.187134 
	C691.057922,802.654480 689.156677,801.060486 688.107300,797.817749 
z"/>
<path fill="#000000" opacity="1.000000" stroke="none" 
	d="
M643.717163,920.428101 
	C643.943054,918.789856 643.385925,917.219727 646.025879,916.600281 
	C646.591064,926.973877 646.446228,937.126770 645.267700,947.337585 
	C642.970581,943.179749 643.904663,938.658936 643.746338,934.299622 
	C643.584045,929.829285 643.710693,925.348572 643.717163,920.428101 
z"/>
<path fill="#000000" opacity="1.000000" stroke="none" 
	d="
M322.361877,944.491089 
	C322.352081,943.905212 322.439270,943.599548 322.526489,943.293884 
	C327.766541,945.341309 328.278046,942.250916 327.626892,938.037659 
	C330.466370,938.163574 331.372375,939.852295 331.636017,941.850952 
	C331.901703,943.864868 330.639740,945.342529 328.991577,946.243469 
	C326.476654,947.618103 324.238892,947.029236 322.361877,944.491089 
z"/>
<path fill="#000000" opacity="1.000000" stroke="none" 
	d="
M438.050110,905.225098 
	C440.504761,905.709717 441.687714,906.899536 440.496796,909.010193 
	C439.647980,910.514404 438.012665,910.737976 436.787201,909.535400 
	C435.098511,907.878235 435.714874,906.366699 438.050110,905.225098 
z"/>
<path fill="#000000" opacity="1.000000" stroke="none" 
	d="
M647.202942,906.698608 
	C647.650330,909.407654 646.614319,910.527039 644.267944,909.940918 
	C642.973572,909.617554 642.512329,908.347961 642.934692,907.176270 
	C643.791260,904.800049 645.312012,904.796875 647.202942,906.698608 
z"/>
<path fill="#000000" opacity="1.000000" stroke="none" 
	d="
M483.000000,646.179810 
	C471.684875,646.173889 460.867493,646.041870 450.055817,646.232361 
	C446.314697,646.298279 444.565857,644.812988 443.931946,641.291382 
	C443.291748,637.734863 442.401245,634.223328 441.494019,630.120605 
	C487.599152,630.120605 533.160339,630.120605 579.200684,630.120605 
	C578.723633,635.058838 577.518066,639.351379 576.188904,643.592041 
	C575.171021,646.839966 572.233704,646.125305 569.854736,646.133240 
	C551.219604,646.195862 532.584167,646.187744 513.948853,646.193787 
	C503.799225,646.197083 493.649628,646.185303 483.000000,646.179810 
M461.541168,639.090698 
	C479.679108,639.076843 497.817169,639.104187 515.954895,639.037476 
	C533.986023,638.971191 552.033325,639.371277 570.054749,638.928406 
	C570.039307,638.290833 570.023865,637.653198 570.008362,637.015625 
	C530.013000,637.015625 490.017639,637.015625 450.022247,637.015625 
	C453.318146,639.918640 457.031006,638.782837 461.541168,639.090698 
z"/>
<path fill="#000000" opacity="1.000000" stroke="none" 
	d="
M481.000000,662.905640 
	C509.303406,662.900024 537.106812,662.886841 564.910217,662.895874 
	C571.400085,662.898010 571.739868,663.235413 570.066833,669.312256 
	C565.836914,684.675842 569.575073,682.058655 553.743164,682.136536 
	C522.610840,682.289734 491.476624,682.078308 460.344482,682.249084 
	C455.668030,682.274719 453.604797,680.854248 452.535278,676.174561 
	C449.498566,662.887451 449.283905,662.936890 463.018799,662.924622 
	C468.845856,662.919434 474.672943,662.912415 481.000000,662.905640 
M507.540283,675.570068 
	C523.848389,675.416809 540.156616,675.267700 556.464600,675.106445 
	C559.324524,675.078186 562.415649,675.291748 561.884949,670.460083 
	C527.333130,670.460083 492.842743,670.460083 458.350494,670.460083 
	C457.517334,674.832642 459.777435,675.592834 463.140350,675.602356 
	C477.612671,675.643250 492.084564,674.824280 507.540283,675.570068 
z"/>
<path fill="#000000" opacity="1.000000" stroke="none" 
	d="
M507.000000,719.130737 
	C493.840302,719.116028 481.179108,718.986450 468.521881,719.156006 
	C464.730225,719.206848 462.616241,718.115662 461.956451,714.182556 
	C461.325012,710.418762 460.340485,706.699890 459.288177,703.025146 
	C458.353058,699.759583 459.743561,698.793213 462.729828,698.794861 
	C494.545624,698.812256 526.361450,698.814941 558.177246,698.779419 
	C561.516907,698.775696 562.599854,699.898254 561.648987,703.345398 
	C556.406921,722.349304 561.126343,718.702393 542.479919,719.083862 
	C530.824524,719.322388 519.160278,719.129639 507.000000,719.130737 
M511.500061,705.359741 
	C498.021179,705.357910 484.542084,705.323181 471.063599,705.393860 
	C469.282898,705.403137 466.589630,704.639648 466.770294,707.931641 
	C466.919220,710.645447 468.384460,711.958862 471.340027,711.949097 
	C497.132599,711.864136 522.925598,711.859863 548.718262,711.902710 
	C551.619446,711.907532 553.198608,710.621155 553.296753,707.873352 
	C553.413147,704.615540 550.742371,705.411438 548.942871,705.401428 
	C536.795593,705.333923 524.647766,705.362732 511.500061,705.359741 
z"/>
<path fill="#000000" opacity="1.000000" stroke="none" 
	d="
M377.250793,469.144012 
	C373.997955,469.057098 371.072144,469.485626 368.324615,467.800873 
	C372.043579,465.822113 375.799683,465.390930 379.672485,467.328552 
	C379.723358,469.122223 378.516785,468.892975 377.250793,469.144012 
z"/>
</svg>