<svg xmlns="http://www.w3.org/2000/svg" width="783.284" height="818.407" viewBox="0 0 783.284 818.407">
  <g id="Group_1" data-name="Group 1" transform="translate(-568.358 -118.593)">
    <g id="moonkiri" transform="translate(448.536 -23.018)">
      <path id="Path_1" data-name="Path 1" d="M246.64,373.682c39.775-54.836,86.174-102.486,142.228-140.258,23.453-15.8,48.216-29.069,76.035-35.7a5.588,5.588,0,0,0,2.717-1.112c5.495-5.868,12.532-6.041,19.867-5.958,16.33.185,32.665.046,49,.05,1.665,0,3.57-.438,4.958.205,14.812,6.854,31.513,5.764,46.669,11.62,28.89,11.16,55.1,26.819,79.533,45.529,61.461,47.068,112.033,103.812,150.476,171.133a258.29,258.29,0,0,1,19.356,41.09c1.5,4.192,3.581,6.341,8.32,5.719,3.275-.43,6.658.03,9.987-.082,3.465-.116,4.552,1.446,4.577,4.834.331,43.867-9.38,85.562-27.483,125.327-17.762,39.017-42.8,72.9-74.271,101.942-40.235,37.131-86.785,63.175-139.349,78.558a364.442,364.442,0,0,1-166.413,8.963c-49.62-8.687-95.486-26.68-137.134-54.974-60.618-41.182-104.122-95.828-127.757-165.538a280.832,280.832,0,0,1-15.262-86.71,12.067,12.067,0,0,0-.027-1.5c-1.819-12.832.026-10.887,10.405-10.917,12.8-.037,12.75.059,17.678-11.764,11.922-28.6,27.754-54.981,45.892-80.455m174.5,280.937c-3.854,4.374-7.592,8.857-11.583,13.1-15.5,16.494-32.116,31.69-53.459,40.277-25.962,10.444-49.411,3.391-61.415-24.076-4.5-10.3-6.279-21.323-8.912-32.094-2.518-10.3.429-20.829.084-31.3-.44-13.314,1.423-26.554,3.508-39.709,1.553-9.8,3.232-19.587,4.883-29.545-2.625.123-4.446,1.358-6.391,2.211-18.273,8.014-36.96,14.54-57.283,13.673-15.42-.657-28.648-6.1-37.17-19.833-5.319-8.572-7.357-18.173-7.616-28.13-.394-15.152,2.954-29.734,7.171-44.158.489-1.672,1.732-3.3.229-5.757-3.824,0-7.975.274-12.075-.071-4.783-.4-5.923,1.668-5.885,6.1a276.207,276.207,0,0,0,8.738,66.171c14.268,55.849,42.154,104.013,82.856,144.8,34.164,34.238,73.982,59.753,118.988,77.277a346.421,346.421,0,0,0,82.515,20.93c9.779,1.237,19.615,2.764,29.722,2.181-.639-1.391-1.771-1.333-2.644-1.673-11.549-4.493-18.907-12.678-21.929-24.73-1.659-6.619-3.238-13.262-5.089-19.827-.951-3.376.106-4.677,3.469-4.675q38.745.027,77.489-.009c3.154,0,4.1,1.255,3.257,4.377-1.946,7.229-3.548,14.55-5.511,21.773a33.992,33.992,0,0,1-8.757,14.913c-4.761,4.9-10.886,7.329-17.639,10.1,4.681,1.522,8.544.026,12.421-.068,25.915-.629,51.294-4.8,76.293-11.48,60.38-16.143,113.01-45.8,157.091-90.281q68.422-69.043,86.326-164.624c2.558-13.763,3.521-27.695,4.679-41.6.8-9.623.593-9.641-9.107-9.592-7.086.036-7.087.037-5.113,7.016,4.591,16.23,8.045,32.517,6.187,49.643-2.721,25.081-20.1,41.1-45.412,41.333-15.931.148-30.967-3.786-45.647-9.49-5.5-2.138-10.924-4.479-16.8-6.9.145,1.229.183,1.867.3,2.49,6,31.782,10.678,63.666,7.38,96.157-1.386,13.656-4.04,26.985-10.563,39.263-10.091,18.992-27,27.034-48,22.55-18.377-3.926-33.076-14.575-46.813-26.643-22.452-19.724-40.639-43.114-57.138-67.866-2.189-3.284-4.513-4.616-8.5-4.6q-60.491.206-120.983.009c-3.567-.01-5.793,1.094-7.757,4.1a409.057,409.057,0,0,1-28.4,38.28M582.972,212.577c-8.19-2.616-16.308-5.566-24.879-5.679a2.447,2.447,0,0,0-.177,2.66q6.281,17.109,12.57,34.214c.558,1.523,1.848,2.289,3.086,3.14a176.167,176.167,0,0,1,19.136,15.255,9.051,9.051,0,0,0,6.694,2.585c8.162-.068,16.341-.22,24.488.18,26.087,1.281,41.809,25.212,34.551,46.293-2.211,6.425-3.281,13.235-5.073,19.815a9.691,9.691,0,0,0,1.221,8.42,666.651,666.651,0,0,1,59.277,120.363c1.272,3.381,2.613,6.348,6.49,7.621-1.288,2.507-2.022,4.552-1.019,7.268a513.788,513.788,0,0,1,17.193,56.3,10.766,10.766,0,0,0,6.286,7.692c17.721,8.727,35.858,16.194,55.808,17.685,9.482.708,18.653-1.058,26.5-6.908,10.505-7.835,13.09-19.385,13.435-31.45.429-14.98-3.467-29.319-7.931-43.5-1.043-3.313-2.432-5.789-6.339-5.852a1.015,1.015,0,0,1-.994-1.337c.821-1.529,3.119-.167,3.848-2.35A291.544,291.544,0,0,0,805.1,419.425c-36.655-62.573-84.128-115.71-141.255-160.223-24.533-19.117-50.715-35.586-80.875-46.625M268.242,363.7c-23.965,31.283-44.99,64.272-59.639,101.725,18.674,1.608,36.854-1.166,54.664,2.371-2.037,1.624-4.24,1.3-6.345,1.312q-21.99.176-43.983.174c-3.187,0-6.047.33-7.17,3.967-5.308,17.2-10.3,34.393-7.613,52.808,3.552,24.366,20.65,31.314,38.648,30.29,20.272-1.154,38.773-8.881,56.7-18.027a10.282,10.282,0,0,0,5.928-7.364c4.318-18.324,10.116-36.212,16.238-54,2.656-7.719,2.615-7.667-5.859-7.764-4.389-.05-8.842.446-14.146-.926a15.155,15.155,0,0,1,8.265-2.188c3.5-.1,7-.187,10.493-.01,3.648.185,5.75-1.138,7.082-4.73a670.935,670.935,0,0,1,49.664-105.11,8.13,8.13,0,0,0,1.016-6.623c-3.486-13.357-6.7-26.784-10.111-40.163a33.364,33.364,0,0,1,.419-19.174c4.914-14.862,18.144-24.814,34.832-25.367,12.815-.424,25.664-.47,38.477-.058,6.508.209,9.044-4.852,13.1-7.955,1.125-.86.328-2.205-.2-3.219-2.8-5.423-1.651-10.575.722-15.809,3.3-7.279,6.391-14.653,9.5-22.017.658-1.56,1.877-3.117.894-5.342a173.435,173.435,0,0,0-34.7,14.261c-29.782,15.733-56.526,35.741-81.639,58.066A592,592,0,0,0,268.242,363.7m373.44,303.113c4.531,4.172,8.911,8.522,13.624,12.477,9.217,7.736,19.056,14.561,30.337,19.036,19.255,7.64,33.911,2.177,43.264-16.27,7.081-13.966,9.055-29.176,9.688-44.5,1.266-30.63-3.51-60.658-10.012-90.467a8.639,8.639,0,0,0-4.682-5.987,398.539,398.539,0,0,1-46.285-31.34,550.756,550.756,0,0,1-42.609-36.981c-6.985-6.687-15.405-4.482-17.675,4.618-3.9,15.647-7.924,31.267-11.547,46.979-.906,3.928-2.6,5.044-6.42,4.994-13.988-.182-27.98-.1-41.97-.035-1.721.007-3.64-.657-5.332.9,1.822,5.573,4.789,10.591,7.191,15.863,1.208,2.651,2.975,3.588,5.854,3.548,9.824-.14,19.652-.072,29.478-.05,1.429,0,3.025-.545,4.37,1.189-.861,6.72-3.3,13.3-4.646,20.112-.64,3.229-2.243,4.386-5.467,4.394-4.235.009-8.543-.624-13.508.654,4.347,5.879,5.25,13.4,12.14,16.878.864.436.849,1.386.749,2.208-.286,2.352.912,4.18,2.074,6,14.893,23.371,31.369,45.508,51.384,65.775M445.5,529.317c-8,0-16-.194-23.985.081-3.941.135-5.568-1.344-6.423-5.092-2.627-11.511-5.554-22.953-8.418-34.409-1.431-5.721-2.98-11.413-4.509-17.249-2.673,1.118-4.083,2.793-5.652,4.257-24.783,23.124-50.98,44.445-80.348,61.528-5.859,3.408-9.4,7.31-10,14.118-.347,3.943-1.643,7.794-2.359,11.713-5.644,30.866-9.361,61.867-4.388,93.189,2.13,13.413,5.847,26.427,16.04,36.363,6.779,6.608,14.944,8.916,24.317,7.283,15-2.611,27.086-10.848,38.543-20.084,22.256-17.941,39.742-40.171,56.178-63.321,2.2-3.1,3.045-5.788,1.463-9.573-1.518-3.633-1.83-7.752-2.939-11.58-1.029-3.553.558-4.513,3.7-4.488,3.664.029,7.33-.039,10.994-.08,1.5-.018,3.149.078,4.078-1.367,3.02-4.7,6.305-9.257,8.337-14.528-2.005-1.291-3.879-.8-5.649-.811-7.5-.057-14.992-.019-22.488-.005-2.072,0-4.184-.067-4.811-2.56-1.852-7.368-3.607-14.76-5.353-21.951,2.379-1.529,4.435-1.139,6.389-1.108,13.816.222,27.628-1.057,41.448-.082,1.953.138,4.37.5,5.48-1.544,3.2-5.886,6.126-11.92,9.568-18.7H445.5m29.517-162.78c1.8-2.8,3.338-5.827,5.461-8.36,4.346-5.185,4.77-11.039,4.033-17.372-2.519-21.637-2.054-43.187,2.709-64.507.879-3.934-.206-5.139-4.031-5.09-9.995.126-19.994.148-29.988.014-2.823-.038-4.631,1.244-6.479,3.067-25.46,25.111-45.714,54.146-64,84.678a8.113,8.113,0,0,0-.791,6.645c5.3,21.319,10.454,42.676,15.712,64.006,1.916,7.774,4,15.506,6.228,24.1a583.054,583.054,0,0,0,71.144-87.177M582.884,271.3H548.83a4.343,4.343,0,0,0-.362,3.885c4.963,21.646,5.286,43.507,3.01,65.477-.649,6.27.172,11.77,3.817,17.435a597.285,597.285,0,0,0,60.939,79.079c.717.787,1.273,2.059,2.9,1.666A73.363,73.363,0,0,0,621.8,431.5c6.573-26.137,13.235-52.254,19.4-78.487.987-4.2,3.048-8.825-.008-13.467-15.339-23.294-31.92-45.574-52.05-65.024-1.544-1.492-2.938-3.265-6.262-3.222M480.413,378.87a575.78,575.78,0,0,1-69.37,83.72c-2.942,2.959-3.869,5.584-2.813,9.632,4.027,15.438,7.835,30.935,11.523,46.459.787,3.312,2.521,4.188,5.622,4.174,19.154-.086,38.31-.155,57.463.012,3.827.034,5.612-1.523,7.064-4.821,7.181-16.307,13.8-32.832,20.022-49.528a16.116,16.116,0,0,0,0-11.507,544.146,544.146,0,0,1-18.366-67.866c-1.287-6.518-2.622-13.026-4.11-20.407-2.644,3.813-4.631,6.68-7.034,10.132m57.035,119.255c2.906,6.719,5.952,13.383,8.657,20.181,1.282,3.224,3.061,4.6,6.66,4.561,14.148-.171,28.3-.1,42.45-.009,2.729.018,4.265-.781,4.952-3.624,3.861-15.989,7.864-31.944,11.8-47.915a4.69,4.69,0,0,0,.014-1.237c-.965-1.273-3.455-.353-3.2-2.726,6.977-4.077,8.778-12.016,3.909-17.242-22.623-24.281-43.461-49.977-61.706-77.737-.65-.988-.9-2.527-2.648-2.669a19.314,19.314,0,0,0-.728,2.417c-4.947,29.928-12.909,59.085-22.547,87.8a9.39,9.39,0,0,0,.251,6.762c3.97,10.233,7.91,20.478,12.135,31.433m150.795-70.931a668,668,0,0,0-39.55-75.712c-.965,3.314-1.741,5.66-2.331,8.052-5.767,23.4-10.677,47.065-17.577,70.13-3.779,12.635-2.388,21.509,8.22,29.749,5.1,3.964,9.43,7.462,16.231,6.628,2.884-.354,6.075-.42,8.911,1.915-3.858,2.448-8.151-.06-12.2,3.083,22.554,20.974,46.187,39.815,72.575,55.236a329.533,329.533,0,0,0-15.078-50.41c-6.157-16.041-11.336-32.484-19.2-48.671m-343.881,7.593L332.27,464.753c3.986,2.449,8.593-.279,11.956,3.175-2.13,1.749-4.387,1.371-6.4,1.237-5.319-.356-8.215,1.8-9.714,7.063-2.232,7.833-5.344,15.412-7.742,23.2-2.762,8.97-5.787,17.888-7.853,28.108,27.381-16.43,51.084-35.9,73.429-56.334.147-2.195-2.524-1.981-1.744-4.018,1.268-.985,2.954-.956,4.591-1.185a10.511,10.511,0,0,0,8.841-13.116c-3.707-14.677-7.318-29.379-10.962-44.073-3.184-12.841-6.359-25.685-9.823-39.674a716.715,716.715,0,0,0-32.487,65.648M533.687,384.31c1.3-7.2,2.438-14.427,3.95-21.578a22.651,22.651,0,0,0-3.22-17.927c-5.463-8.558-9.812-17.783-13.913-27.1-.61-1.384-.825-3.283-3.182-3.729C511.518,326.7,505,339.054,498.091,351.2c-1.152,2.026-.852,4.213-.538,6.351a524.312,524.312,0,0,0,14.037,65.8c1.829,6.5,3.113,13.265,6.636,20.29a561.048,561.048,0,0,0,15.461-59.337m-157.9-43.876c.652,1.285.363,2.988,2.071,4.229,16.068-25.683,33.539-50.267,54.531-72.111-1.539-1.635-2.962-1.227-4.22-1.226-10.657.007-21.326-.217-31.968.207-15.863.632-33.781,13.582-28.3,37.179,2.411,10.371,5.071,20.685,7.881,31.722m162.4,402.55H476.4c1.775,22.685,11.664,38.858,35.8,37.652,21.179-1.057,30.277-16.128,31.266-37.348-1.458-.1-2.922-.2-5.279-.3M564.87,581.545c-1.89-2.946-2.715-6.468-7.741-6.418-26.14.263-52.284.119-78.427.135-1.631,0-3.511-.382-4.6,1.261a96.543,96.543,0,0,0-8.379,14.967h104.3c-1.033-3.84-3.357-6.348-5.155-9.945m74.321-305.32c-11.26-6.852-23.539-4.744-36.7-4.717,16.779,17.483,30.687,35.78,43.9,54.942,3.427-5.869,4.316-11.622,5.678-17.237,3.365-13.869-.536-24.318-12.877-32.988m-106.7,273.364h15.4c-3.219-6.713-5.887-12.241-8.522-17.785-1.022-2.151-2.821-2.508-4.968-2.5-10.982.041-21.964.009-32.946,0-1.684,0-3.51-.07-4.388,1.7-2.913,5.874-5.72,11.8-8.989,18.582,15.226,0,29.322,0,44.414,0M493.587,556c-9.524.339-13.074,3.424-13.731,12.18h77.4a40.4,40.4,0,0,1-2.12-4.659c-1.82-6.139-6.133-7.7-12.11-7.606-16.152.243-32.311.083-49.441.085m70.9,49.726c4.538-.231,9.164.565,13.777-.682-1.054-3.869-2.834-5.633-6.712-6-7.665-.729-15.289-.039-22.923-.057-27.8-.065-55.611.18-83.416.166-4.17,0-6.575,1.574-7.659,6.573H564.488m-40.9-110.9L518,480.842,501.045,522.4h33.87c-3.9-9.429-7.493-18.135-11.328-27.575M507.879,306.44c1.19-3.723,4.346-7.06,3.293-11.205-1.837-7.228-4.192-14.324-6.3-21.482-.34-1.155-.637-2.245-2.122-2.374-1.652-.144-2.409.856-2.892,2.194a29.606,29.606,0,0,0-.88,2.851c-3.854,15.4-4.8,31.093-4.5,46.889.045,2.345.731,4.677,1.264,7.876,5.045-8.217,8.215-16.252,12.142-24.749m31.93-13.936c-.328-6.024-1.939-11.814-3.275-17.649-.366-1.6-.8-3.39-2.974-3.477-2.4-.1-2.38,1.984-2.83,3.471-1.927,6.369-3.75,12.77-5.647,19.148-.381,1.282-.959,2.535-.454,3.884a260.8,260.8,0,0,0,15.681,33.986c1.968-13.413.961-25.944-.5-39.363M444.525,568.715c4.322,0,8.644.012,12.966-.01,7.773-.04,11.421-3.575,12.314-12.144h-39.97c.878,11.81,1.27,12.183,12.208,12.156.5,0,1,0,2.482,0m122.038-8.634c1.807,2.737,2.184,7.158,5.373,8.06a26.133,26.133,0,0,0,14.756,0c3.46-1.11,2.5-5.746,3.537-8.792a10.968,10.968,0,0,0,.036-2.9,144.857,144.857,0,0,0-22.417-.113c-2.272.155-2.29,1.432-1.285,3.75M549.332,263.269c-.813.313-2.022-.475-2.623,1.146h30.53c-2.408-3.144-5.133-4.51-7.426-6.388-1.4-1.152-2.608-1-3.959.207-4.484,4.021-9.919,5.183-16.522,5.035m-72.845-.081H459.442c.008.4.015.8.023,1.193h29q.024-.6.047-1.194H476.487M622.4,460.9c-1.775.952-1.495,2.6-1.554,4.3a6.676,6.676,0,0,0,6.353-.175,54.223,54.223,0,0,0-4.8-4.125M445.234,600.453c-1.176-1.74-3.078-1.755-4.151-.583-1.49,1.628-.126,3.178,1.081,4.445C443.982,603.765,444.6,602.435,445.234,600.453Z" fill="#e2d9d9"/>
      <path id="Path_2" data-name="Path 2" d="M546.438,181.408c-11.955,10.736-25.97,7.288-33.321-7.863-5.943,11.159-12.547,15.139-22.648,13.651-7.739-1.141-13.743-7.061-15.35-15.137-1.388-6.977,2.472-13.626,12.068-19.609-2.649,0-4.364-.3-5.933.045-29.215,6.51-58.634,12.114-86.85,22.624-50.66,18.871-96.117,45.928-134.119,84.649q-62.022,63.2-79.07,150.3c-.533,2.746.9,7.837-5.38,6.65-6.26-1.183-7.105-2.058-5.85-8.668a295.89,295.89,0,0,1,62.32-134c31.806-38.948,70.889-68.665,115.837-90.967,36.515-18.119,74.945-30.183,114.958-37.527,7.993-1.467,15.727-4.37,24.052-3.9,6.523.371,11.611,2.882,14.241,9.134a9.986,9.986,0,0,0,4.217,4.718c3.721,2.328,5.674,5.973,7.544,10.436,1.964-10.213,11.859-12.426,17.957-18.43,5-4.921,12.424-3.618,18.7-2.415,42.6,8.164,84.5,18.767,123.784,37.834,68.858,33.424,123.688,81.624,158.379,150.888a288.956,288.956,0,0,1,24.107,70.161c.374,1.772.826,3.527,1.226,5.225-.3.333-.478.717-.739.788-10.408,2.832-10.322,2.808-12.777-8.074a282.614,282.614,0,0,0-70.839-133.413C723.222,215.523,661.565,183.25,591.8,165.443c-15.254-3.893-30.758-6.813-46.768-10.317C552.8,166.427,553.1,172.962,546.438,181.408Z" fill="#e2d9d9"/>
      <path id="Path_3" data-name="Path 3" d="M319.7,870c-.421-11.3,1.033-22.174-.921-32.912-2.1-11.549-12.281-19.7-23.024-18.7-13.333,1.238-23.407,11.323-23.427,23.49s-.005,24.328-.007,36.491c0,1.333.063,2.672-.04,4-.11,1.4.382,3.439-1.762,3.516-2.519.091-2.086-2.07-2.08-3.669.041-10.5.153-20.992.159-31.488.005-10.162-.1-20.324-.134-30.486-.007-1.6-.54-3.745,1.989-3.735,2.157.01,1.8,2.01,1.861,3.437.076,1.811.018,3.628.018,6.924,7.444-8.078,15.343-12.416,25.5-12.282,10.663.142,17.865,5.336,22.96,13.936,1.82.144,2.093-1.262,2.752-2.1,7.937-10.093,21.2-14.489,32.582-10.75,11.014,3.62,17.72,13.167,18.038,26.668.31,13.157.128,26.326.089,39.489-.005,1.518.62,3.9-1.742,4.015-2.676.136-2.326-2.386-2.347-4.1-.17-13.654-.01-27.316-.446-40.96-.395-12.372-8.351-20.848-20.146-22.34-9.847-1.244-22.411,6.729-25.734,16.33-1.074,3.1-.563,6.3-.328,9.416.927,12.322.153,24.652.407,36.974a14.3,14.3,0,0,1-.155,2.49c-.185,1.183-.48,2.4-2.059,2.3-1.491-.093-1.9-1.222-1.915-2.457C319.722,879.16,319.721,874.827,319.7,870Z" fill="#e2d9d9"/>
      <path id="Path_4" data-name="Path 4" d="M658,863.01c5.553,6.667,10.9,13.047,16.187,19.471,1.092,1.325,3.137,2.88.872,4.555-2.08,1.537-3.272-.644-4.391-1.979-6.948-8.292-13.843-16.629-20.775-24.935-.941-1.128-1.622-2.549-3.955-3.356-3.3,5.665-6.68,11.481-10.078,17.284-3.409,5.822-6.839,11.633-10.238,17.412-2.436-1.146-1.814-2.866-1.816-4.218q-.062-44.949-.013-89.9a16.274,16.274,0,0,1,.209-2.98,1.907,1.907,0,0,1,2.106-1.692,1.87,1.87,0,0,1,1.944,1.858c.121,1.491.16,2.991.16,4.487q.016,35.46.011,70.92,0,3.129,0,6.257l1.075.279q7.971-13.723,15.937-27.45,8-13.832,15.949-27.689a28.556,28.556,0,0,1,1.556-2.557c.776-1.067,1.589-2.4,3.2-1.508,1.875,1.041,1.1,2.544.346,3.867-3.368,5.934-6.741,11.865-10.181,17.758C648.777,851.45,648.76,851.44,658,863.01Z" fill="#e2d9d9"/>
      <path id="Path_5" data-name="Path 5" d="M533.88,876.868c-15.576,14.521-38.1,14.225-52.36-.431-13.5-13.872-13.576-37.028-.163-50.728,14.155-14.458,37.447-15.042,51.821-1.3,14.54,13.9,14.956,36.669.7,52.458m1.2-8.351c3.612-5.789,5.8-12.123,5.277-18.912a32.927,32.927,0,0,0-38.941-30.364c-15.678,2.818-28.677,20.7-25.664,36.315,2.737,14.175,11,23.57,24.877,26.894C514.654,885.81,526.038,880.494,535.077,868.517Z" fill="#e2d9d9"/>
      <path id="Path_6" data-name="Path 6" d="M414.844,815.429c20.928-3.9,39.011,7.578,43.67,27.352,4.435,18.823-6.879,38.209-25.324,43.392-19.92,5.6-40.252-5.72-45.44-25.294-5.477-20.66,5.967-40.118,27.094-45.45m-4.888,5.948c-15,7.374-22.2,21.948-18.525,37.464,3.26,13.748,17.544,25.3,31.453,24.66,14.208-.653,24.567-7.574,30.208-20.89,4.775-11.27,1.883-24.948-7.084-34.137C436.672,818.906,423.457,816.149,409.956,821.377Z" fill="#e2d9d9"/>
      <path id="Path_7" data-name="Path 7" d="M560.283,840.354c0,13.781.051,27.1-.059,40.424-.016,1.865,1.157,5.085-2.2,5.027-2.743-.048-2.063-2.956-2.067-4.816q-.063-29.973-.02-59.945c0-.666-.037-1.336.018-2,.113-1.372.342-2.818,2.084-2.877,1.776-.06,2.12,1.352,2.163,2.748.064,2.129.017,4.26.017,6.535,2.426-.213,3.037-2,4.215-3.029,9.239-8.052,19.81-10.316,31.115-5.834,11.225,4.45,15.607,13.915,15.741,25.49.153,13.153.079,26.31,0,39.464-.009,1.61.874,4.263-1.9,4.3-2.594.036-2.205-2.553-2.227-4.241-.187-14.15.011-28.311-.484-42.449-.406-11.568-10.264-20.662-21.584-20.764C572.66,818.28,561,828.388,560.283,840.354Z" fill="#e2d9d9"/>
      <path id="Path_8" data-name="Path 8" d="M150,944.879c-10.2-.15-19.938.507-30.178-1.114,3.8-2.555,194.793-2.878,199.2.016-13.791,1.779-27.707,1.062-41.572,1.2-14.16.142-28.322.017-42.483,0q-20.992-.023-41.984-.06C178.823,944.9,164.661,944.893,150,944.879Z" fill="#e2d9d9"/>
      <path id="Path_9" data-name="Path 9" d="M723,941.707c60.37.022,120.241,0,180.105.738-4.144,3.062-190.291,3.366-198.421.5C710.46,940.984,716.555,942.052,723,941.707Z" fill="#e2d9d9"/>
      <path id="Path_10" data-name="Path 10" d="M452.493,918.326c8.4-5.365,15.74-3.711,22.425,2.512,1.244-1.386-.008-3.73,3.289-4.584-.453,12.007,2.292,23.9-1.542,35.354-1.907,5.7-7.584,8.462-13.649,8.409a15.021,15.021,0,0,1-14.257-9.227c-.473-1.018-1.2-2.089.042-3.406,2.52.375,2.677,2.977,3.854,4.54a12.62,12.62,0,0,0,15.172,4.118c5.709-2.342,8.3-7.071,7.364-13.417-10.6,7.974-19.285,8.1-25.767.391-6.2-7.368-4.509-19.826,3.069-24.69m15.926,25.851c8.32-6.714,9.785-16.26,3.416-22.267a13.726,13.726,0,0,0-17.776-1.125,14.005,14.005,0,0,0-3.887,18.236C453.7,945.286,460.331,947.377,468.419,944.177Z" fill="#e2d9d9"/>
      <path id="Path_11" data-name="Path 11" d="M710.865,859c0-12.16-.009-23.821-.005-35.481,0-1.5.011-3,.115-4.493s.855-2.569,2.495-2.518c1.536.047,1.792,1.2,1.828,2.467.023.816.1,1.63.2,3.11,3.8-2.826,7.035-5.752,11.371-6.555a39.255,39.255,0,0,1,4.921-.684c1.341-.074,2.881.1,3.022,1.853.137,1.7-1.215,2.155-2.628,2.383a31.572,31.572,0,0,0-5.85,1.054c-6.93,2.55-11.022,8.588-11.05,16.221-.057,14.992.007,29.984-.075,44.976-.009,1.77.858,4.644-2.272,4.526-2.533-.1-2.023-2.642-2.037-4.371C710.836,874.159,710.866,866.83,710.865,859Z" fill="#e2d9d9"/>
      <path id="Path_12" data-name="Path 12" d="M604.772,932.853c1.377-16.7,13.642-21.784,29.648-12.545,1.327-4.853-.662-10.115,2.3-14.756,1.779,13.977,1.242,27.938.985,41.672-1.859.544-2.282-.159-2.636-.93-.334-.728-.631-1.473-1.187-2.784-6.318,4.729-12.821,7.537-20.313,3.444-5.444-2.973-8-7.742-8.8-14.1m2.842-1.914a9.6,9.6,0,0,0,.552,4.884c2.12,7.594,9.294,11.807,16.507,9.693,7.123-2.089,11.788-10.622,9.778-17.886a13.446,13.446,0,0,0-16.512-9.117C612.03,920.131,608.868,924.292,607.614,930.939Z" fill="#e2d9d9"/>
      <path id="Path_13" data-name="Path 13" d="M370.155,934.982c-.393,4.515.87,8.707-1.009,12.665-3.072-.639-1.452-3.5-2.729-4.827-9.525,7.454-17.238,8.006-24.1,1.733-5.94-5.433-7.012-14.924-2.473-21.893,5.305-8.142,12.777-9.031,26.565-3.023,1.642-4.63-.815-9.865,2.4-14.316,2.121,4.564,1.156,9.457,1.317,14.187.17,4.987.029,9.985.025,15.474m-18.3,10.879c7.186,1.318,12.991-4.9,14.587-10.358,1.78-6.09-.4-12.246-5.485-15.311-5.033-3.035-10.223-3.036-15.074.247a13.144,13.144,0,0,0-5.895,13.42C340.888,940.257,344.441,944.5,351.85,945.861Z" fill="#e2d9d9"/>
      <path id="Path_14" data-name="Path 14" d="M407.581,930.437c-5.109,2.15-10.272,1.243-15.345,1.477-2.321.108-4.663-.121-6.975.066-2.524.2-6.179-1.44-7.274,1.406-1.257,3.268,1.217,6.321,3.647,8.665,5.144,4.961,12.814,5.081,18.672.565,1.324-1.021,2.122-2.967,4.316-3.007-.893,5.652-7.561,9.776-14.415,9.174-9.267-.814-15.684-8.042-15.53-17.493.142-8.747,6.79-15.585,15.771-16.222,8.685-.617,16.112,5.844,17.133,15.369m-5.735-7.8c-4.514-4.746-9.991-5.79-15.906-3.5-3.89,1.505-7.017,4.116-7.392,9.412,8.807.393,17.208.711,25.552-.167C404.269,925.883,403.243,924.56,401.846,922.641Z" fill="#e2d9d9"/>
      <path id="Path_15" data-name="Path 15" d="M750.1,828.043c-.005-2.985-.087-5.481.018-7.969.069-1.631.091-3.734,2.436-3.569,2.065.146,1.714,2.134,1.724,3.558.04,5.817.008,11.634.008,17.45,0,14.625.031,29.25-.04,43.874-.008,1.642.825,4.35-1.748,4.463-3.092.136-2.074-2.648-2.085-4.479C750.3,863.759,750.2,846.147,750.1,828.043Z" fill="#e2d9d9"/>
      <path id="Path_16" data-name="Path 16" d="M691.077,839.008c.017-6.649.01-12.8.066-18.949.015-1.65-.052-3.709,2.3-3.649,2.129.054,1.84,2.044,1.841,3.463q.039,31.212-.02,62.423c0,1.548.347,3.833-2.2,3.595-2.258-.211-1.927-2.378-1.932-3.975C691.094,867.78,691.092,853.643,691.077,839.008Z" fill="#e2d9d9"/>
      <path id="Path_17" data-name="Path 17" d="M660.041,917.813c7.179-4.164,13.866-3.543,19.788,1.391,5.4,4.5,7.48,10.559,5.334,17.485-2.112,6.815-6.842,10.869-13.981,11.851a16.316,16.316,0,0,1-17.559-10.25c-3.038-7.393-.829-14.748,6.418-20.477m7.723,27.938c7.415-.094,12.974-3.708,14.67-9.538,1.843-6.335-.505-12.983-5.843-16.09a13.956,13.956,0,0,0-15.923.663c-4.894,3.4-6.32,8.53-5.188,14.082C656.718,940.941,660.625,944.732,667.764,945.751Z" fill="#e2d9d9"/>
      <path id="Path_18" data-name="Path 18" d="M508.062,923.476c1.211,8.342,1.608,16.271.233,24.621-2.886-1.609-2.321-3.633-2.365-5.352-.131-5.148.022-10.306-.21-15.448-.253-5.592-3.911-9.152-9.085-9.233-5.917-.093-10.371,3.8-10.586,9.566-.185,4.978.009,9.969-.083,14.952-.032,1.727.5,3.708-2.623,5.908a250.158,250.158,0,0,1,.305-32.264c2.187,1.271,3.317,2.49,5.819,1.06C497.382,912.758,503.672,914.935,508.062,923.476Z" fill="#e2d9d9"/>
      <path id="Path_19" data-name="Path 19" d="M597.722,924.126c.263-2.793-.66-5.347,2.012-8.726v33.011c-2.116-3.02-3.721-2.487-6.06-1.172-7.961,4.474-16.83.453-18.4-8.426-1.22-6.894-.617-13.946-.3-20.929.023-.519.655-1.011,1.04-1.568,2.432,1.478,1.637,3.58,1.608,5.481-.067,4.494-.373,9-.128,13.48.392,7.143,4.032,10.889,9.917,10.75,6.538-.154,10.239-4.252,10.3-11.43C597.73,931.266,597.717,927.934,597.722,924.126Z" fill="#e2d9d9"/>
      <path id="Path_20" data-name="Path 20" d="M429.459,934.861c2.789,4.487,2.111,8.332-1.3,11.592a8,8,0,0,1-10.54,1.006c-3.166-2.013-5.222-4.8-4.228-9.073,2.534.473,2.1,2.641,2.909,3.91,1.589,2.49,3.685,3.837,6.638,3.493a5.948,5.948,0,0,0,5.23-4.715c.727-2.73-.744-4.882-2.8-6.469-2.76-2.128-6.388-2.933-8.871-5.492-2.645-2.726-3.752-5.865-1.922-9.535a7.315,7.315,0,0,1,7.7-4.407,8.041,8.041,0,0,1,7.432,6.381,1.5,1.5,0,0,1-.734,1.77c-1.748.152-1.8-1.55-2.516-2.529a5.532,5.532,0,0,0-6.068-2.448,4.933,4.933,0,0,0-3.794,3.611c-.748,2.687.926,4.444,2.847,5.873C422.614,930.192,426.757,931.15,429.459,934.861Z" fill="#e2d9d9"/>
      <path id="Path_21" data-name="Path 21" d="M541.73,915.182c4.6,1.071,7.079,3.423,7.417,8.22-3.021-.238-2.914-2.478-4.077-3.523-2.458-2.209-5.157-2.623-7.6-.356-2.514,2.331-2.417,5.274.2,7.392,2.56,2.075,5.674,3.451,8.423,5.311,3.936,2.664,5.316,6.458,3.618,10.887-1.529,3.989-4.8,5.926-9.09,5.6-4.341-.335-7.923-4.126-8.421-8.6a1.516,1.516,0,0,1,1.161-1.73c1.476.775,1.444,2.649,2.223,3.97a6.545,6.545,0,0,0,6.65,3.5,5.552,5.552,0,0,0,5.068-4.165c1-2.983-.268-5.279-2.618-6.927-2.035-1.426-4.343-2.456-6.458-3.777-3.448-2.152-6.092-4.985-5.2-9.379C533.9,917.264,537.005,915.269,541.73,915.182Z" fill="#e2d9d9"/>
      <path id="Path_22" data-name="Path 22" d="M564.266,913.448c.661,3.276,4.078,1.418,5.589,4.037-7.514,1.177-5.686,6.87-5.752,11.7-.064,4.659.021,9.319-.063,13.977-.028,1.567.457,3.387-1.387,4.524-2.369-.883-1.689-2.978-1.718-4.627-.1-5.822-.159-11.65-.01-17.47.1-4.034.065-7.737-5.582-7.912,1.255-2.827,5.825-1.025,5.582-5.1-.137-2.3-.834-5.028,1.561-7.036C564.951,907.694,563.7,910.581,564.266,913.448Z" fill="#e2d9d9"/>
      <path id="Path_23" data-name="Path 23" d="M523.442,947.511c-3.9.609-6.2-.7-6.68-4.409-.385-2.965.643-5.295,3.61-6.287a4.849,4.849,0,0,1,6.242,2.712C528.327,942.94,527.077,945.593,523.442,947.511Z" fill="#e2d9d9"/>
      <path id="Path_24" data-name="Path 24" d="M436.791,922.268c.31-2.269-.754-4.506,2.789-6.372a196.294,196.294,0,0,1-.658,31.615c-3.278-3.586-1.828-7.882-2.063-11.853C436.6,931.362,436.8,927.039,436.791,922.268Z" fill="#e2d9d9"/>
      <path id="Path_25" data-name="Path 25" d="M756.2,800.458c-3.3,2.66-6.149,2.5-8.348-.726-1.782-2.615-1.063-5.13,1.385-6.98a4.691,4.691,0,0,1,6.007-.016C757.9,794.765,758.248,797.329,756.2,800.458Z" fill="#e2d9d9"/>
      <path id="Path_26" data-name="Path 26" d="M688.107,797.818c1.367-5.466,4.486-7.4,7.9-5.274a5.04,5.04,0,0,1,2.528,5.488,4.946,4.946,0,0,1-4.371,4.155C691.058,802.654,689.157,801.06,688.107,797.818Z" fill="#e2d9d9"/>
      <path id="Path_27" data-name="Path 27" d="M643.717,920.428c.226-1.638-.331-3.208,2.309-3.828a180.766,180.766,0,0,1-.758,30.738c-2.3-4.158-1.363-8.679-1.522-13.038C643.584,929.829,643.711,925.349,643.717,920.428Z" fill="#e2d9d9"/>
      <path id="Path_28" data-name="Path 28" d="M322.362,944.491a3.557,3.557,0,0,1,.164-1.2c5.241,2.047,5.752-1.043,5.1-5.256,2.839.126,3.745,1.814,4.009,3.813s-1,3.492-2.644,4.392C326.477,947.618,324.239,947.029,322.362,944.491Z" fill="#e2d9d9"/>
      <path id="Path_29" data-name="Path 29" d="M438.05,905.225c2.455.485,3.638,1.675,2.447,3.785a2.225,2.225,0,0,1-3.71.525C435.1,907.878,435.715,906.367,438.05,905.225Z" fill="#e2d9d9"/>
      <path id="Path_30" data-name="Path 30" d="M647.2,906.7c.447,2.709-.589,3.828-2.935,3.242a2,2,0,0,1-1.333-2.765C643.791,904.8,645.312,904.8,647.2,906.7Z" fill="#e2d9d9"/>
      <path id="Path_31" data-name="Path 31" d="M483,646.18c-11.315-.006-22.133-.138-32.944.052-3.741.066-5.49-1.419-6.124-4.941-.64-3.556-1.531-7.068-2.438-11.17H579.2a64.713,64.713,0,0,1-3.012,13.471c-1.018,3.248-3.955,2.533-6.334,2.541q-27.953.094-55.906.061c-10.15,0-20.3-.009-30.949-.014m-21.459-7.089c18.138-.014,36.276.013,54.414-.054,18.031-.066,36.078.334,54.1-.109q-.024-.955-.047-1.912H450.022C453.318,639.919,457.031,638.783,461.541,639.091Z" fill="#e2d9d9"/>
      <path id="Path_32" data-name="Path 32" d="M481,662.906c28.3-.006,56.107-.019,83.91-.01,6.49,0,6.83.339,5.157,6.416-4.23,15.364-.492,12.747-16.324,12.825-31.132.153-62.266-.059-93.4.112-4.676.026-6.739-1.4-7.809-6.074-3.036-13.288-3.251-13.238,10.484-13.25L481,662.906m26.54,12.664q24.462-.23,48.925-.464c2.86-.028,5.951.186,5.42-4.646H458.35c-.833,4.373,1.427,5.133,4.79,5.142C477.613,675.643,492.085,674.824,507.54,675.57Z" fill="#e2d9d9"/>
      <path id="Path_33" data-name="Path 33" d="M507,719.131c-13.16-.015-25.821-.145-38.478.025-3.792.051-5.906-1.04-6.566-4.973a102.069,102.069,0,0,0-2.668-11.158c-.935-3.265.456-4.232,3.442-4.23q47.724.026,95.447-.016c3.34,0,4.423,1.119,3.472,4.566-5.242,19-.523,15.357-19.169,15.739-11.655.238-23.32.046-35.48.047m4.5-13.771c-13.479,0-26.958-.037-40.436.034-1.781.009-4.474-.754-4.294,2.538.149,2.713,1.614,4.027,4.57,4.017q38.689-.127,77.378-.046c2.9.005,4.481-1.282,4.579-4.03.116-3.257-2.555-2.462-4.354-2.472C536.8,705.334,524.648,705.363,511.5,705.36Z" fill="#e2d9d9"/>
      <path id="Path_34" data-name="Path 34" d="M377.251,469.144c-3.253-.087-6.179.342-8.926-1.343,3.719-1.979,7.475-2.41,11.347-.472C379.723,469.122,378.517,468.893,377.251,469.144Z" fill="#e2d9d9"/>
    </g>
  </g>
</svg>
